<?xml version="1.0" standalone="no"?>
<!DOCTYPE svg PUBLIC "-//W3C//DTD SVG 1.1//EN" "http://www.w3.org/Graphics/SVG/1.1/DTD/svg11.dtd" >
<svg xmlns="http://www.w3.org/2000/svg" xmlns:xlink="http://www.w3.org/1999/xlink" version="1.1">
<metadata></metadata>
<defs>
<font id="gveret_levin_alefalefalefRg" horiz-adv-x="0" >
<font-face units-per-em="2048" ascent="1638" descent="-410" />
<missing-glyph horiz-adv-x="593" />
<glyph unicode=" "  horiz-adv-x="593" />
<glyph unicode="&#x09;" horiz-adv-x="593" />
<glyph unicode="&#xa0;" horiz-adv-x="593" />
<glyph unicode="!" horiz-adv-x="471" d="M-88 137q0 61 44 105.5t107 44.5q74 0 112 -42t38 -108q0 -59 -59.5 -105t-124.5 -46q-117 -1 -117 151zM76 526q0 29 10 66q23 82 114 270.5t185 366.5q25 45 56.5 69.5t66.5 24.5q33 0 59 -16q55 -35 56 -101q0 -45 -33 -96q-111 -168 -181.5 -299t-142.5 -305 q-16 -37 -43.5 -55.5t-58.5 -18.5q-27 0 -43 8q-45 20 -45 86z" />
<glyph unicode="&#x22;" horiz-adv-x="681" d="M215 975q0 16 10 53q121 360 129 410q10 53 52.5 89t78.5 25q88 -23 88 -102q0 -14 -8 -47q-33 -106 -94 -225t-122.5 -196t-92.5 -67q-41 15 -41 60zM489 975q0 16 11 53q125 373 131 410q10 53 52 89t79 25q43 -12 64.5 -38.5t21.5 -63.5q0 -14 -8 -47 q-33 -106 -94.5 -225t-123 -196t-92.5 -67q-41 15 -41 60z" />
<glyph unicode="#" horiz-adv-x="1126" d="M2 399q0 41 34 69t77 32l108 6l21 53l30 78q-82 -2 -133 2q-45 6 -45 66q0 12 4 32q8 31 39 57.5t76 26.5q70 0 133 2q59 141 94 236q14 37 54.5 65.5t74.5 28.5q45 0 45 -55q0 -37 -14 -82q-12 -39 -65 -191l186 2l49 127q41 106 47 119q29 59 62.5 75.5t70.5 16.5 q25 0 46.5 -18.5t21.5 -46.5q0 -18 -8 -35q-2 -8 -23.5 -56t-75.5 -180l121 2q41 0 72 -20t31 -51q0 -35 -36 -66.5t-93 -34.5q-61 0 -166 -6l-54 -131q162 0 179 -2q31 -6 52 -31.5t21 -52.5q0 -33 -43 -65.5t-71 -32.5l-209 -2q-70 -193 -92 -260q-14 -43 -54.5 -66.5 t-76.5 -23.5q-14 0 -19 2q-37 16 -37 51q0 16 6 31l95 264l-183 -2l-94 -248q-23 -49 -60.5 -78t-74.5 -29q-35 0 -54.5 19.5t-19.5 54.5q0 18 10 53l89 222l-68 -2q-41 -2 -60.5 20.5t-19.5 54.5zM422 514l184 4l47 129l-184 -6z" />
<glyph unicode="$" horiz-adv-x="1024" d="M-4 338q0 63 22 106q57 115 123 115q18 0 43 -10q53 -25 54 -84q0 -20 -9 -49q-12 -39 -12 -74q0 -66 43 -115l137 363q-102 61 -169.5 143t-67.5 180q0 53 24 111q35 80 119 125t203 45q53 0 100 -8l23 80q8 31 33.5 55.5t52.5 24.5t41 -26t14 -56q0 -23 -4 -31l-29 -84 q102 -55 174 -201q25 -49 25 -92q0 -59 -51 -86q-25 -12 -47 -12q-39 0 -72 29.5t-45 80.5q-8 41 -53 86l-86 -245q12 -8 106 -73t156.5 -153t62.5 -176q0 -45 -14 -88q-45 -139 -158.5 -203.5t-261.5 -64.5q-74 0 -151 16l-25 -71q-14 -49 -64 -50q-8 0 -28 4 q-29 10 -42 23.5t-13 36.5q0 18 8 41l24 67q-88 51 -137 140.5t-49 179.5zM381 911q0 -63 86 -127q39 102 82 230q-14 2 -41 2q-98 0 -121 -68q-6 -19 -6 -37zM387 152q41 -10 78 -11q74 0 133 33t80 86q10 22 10 55q0 104 -172 207z" />
<glyph unicode="%" horiz-adv-x="1269" d="M86 53q0 37 25 70q240 270 571 631l332 364q41 47 96 47q27 0 49 -14q20 -12 21 -47q0 -37 -23 -70q-51 -72 -169 -203t-242.5 -264t-167.5 -178q-283 -299 -353 -381q-14 -18 -57 -18q-41 0 -64 16q-18 16 -18 47zM131 862q2 80 48 157t116 125t145 48q111 0 160 -66.5 t43 -185.5q-4 -82 -44 -158.5t-108.5 -126t-154.5 -49.5q-107 0 -158 72t-47 184zM297 864q0 -39 13.5 -65.5t39.5 -26.5q58 0 97.5 56.5t39.5 117.5q0 84 -65 84q-37 0 -77 -42t-46 -89q-2 -10 -2 -35zM627 205q0 84 44 167t115.5 135t149.5 52q111 0 162 -67.5t43 -186.5 q-6 -80 -46 -156.5t-108.5 -126t-155.5 -49.5q-102 0 -153 63.5t-51 168.5zM780 211q0 -31 19.5 -55.5t44.5 -24.5q39 0 73.5 28.5t54 71.5t19.5 80q0 94 -69 95q-33 0 -54.5 -25t-23.5 -27q-2 -4 -4 -14t-6 -16q-2 -2 -7.5 -9.5t-9.5 -10.5t-10 -3q-4 0 -15.5 -30.5 t-11.5 -59.5z" />
<glyph unicode="&#x26;" horiz-adv-x="1024" d="M-66 211q0 100 60.5 209.5t193.5 210.5q82 63 168 121l-67 133q-47 78 -47 133q0 29 11 60.5t15 47.5q20 76 109.5 130.5t200.5 54.5q43 0 77 -8q109 -25 177.5 -101t68.5 -188q0 -29 -6 -64q-8 -49 -39 -86t-78 -68.5t-170 -105.5l113 -211q47 63 113 178 q14 31 45.5 55.5t62.5 24.5q29 0 49 -24q23 -29 23 -62q0 -35 -18.5 -71.5t-55.5 -87.5l-35 -52q-45 -74 -92 -135l123 -233q14 -33 14 -58q0 -31 -16 -55.5t-45 -34.5q-25 -8 -51 -8q-66 0 -97 59l-79 162q-109 -98 -219.5 -148t-211.5 -50q-125 0 -215 73q-37 31 -59.5 83 t-22.5 116zM158 272q-4 -59 25.5 -93t82.5 -34q61 0 143.5 42t165.5 122l-137 275q-31 -18 -76 -49q-86 -55 -143 -132t-61 -131zM477 1028q0 -68 49 -176l62 31q59 29 83.5 47t39.5 51q6 16 6 31q0 43 -40 77.5t-97 34.5q-103 0 -103 -96z" />
<glyph unicode="'" horiz-adv-x="407" d="M215 975q0 16 10 53q125 373 131 410q10 53 52.5 89t78.5 25q43 -12 64.5 -38.5t21.5 -63.5q0 -14 -8 -47q-33 -106 -94 -225t-122.5 -196t-92.5 -67q-41 15 -41 60z" />
<glyph unicode="(" horiz-adv-x="632" d="M90 338q0 102 21 219q47 266 181 490.5t355 384.5q64 45 111 45q49 0 71 -50q4 -12 5 -18q0 -25 -21.5 -49.5t-56.5 -42.5q-33 -16 -112 -117.5t-160 -258.5t-126 -337q-29 -121 -28 -246q0 -223 92 -471q12 -35 12 -65q0 -39 -17.5 -67.5t-41.5 -35.5q-6 -2 -19 -2 q-35 0 -64.5 28t-43.5 58q-82 162 -120 272.5t-38 262.5z" />
<glyph unicode=")" horiz-adv-x="634" d="M-180 -215q0 25 21.5 49.5t56.5 42.5q33 16 111.5 117.5t159.5 258.5t126 337q29 121 29 246q0 223 -93 471q-12 35 -12 65q0 39 17.5 67.5t42.5 35.5q6 2 18 2q35 0 64.5 -28t44.5 -58q82 -162 119.5 -272.5t37.5 -262.5q0 -102 -20 -219q-47 -266 -181.5 -490.5 t-355.5 -384.5q-63 -45 -110 -45q-49 0 -72 50q-4 12 -4 18z" />
<glyph unicode="*" horiz-adv-x="653" d="M147 1047q0 33 27 56t72 23q23 0 42 -2t40 -2q-27 51 -56 117q-8 18 -8 43q0 51 39 70q18 10 38.5 -3.5t33.5 -37.5q61 -106 71 -125q16 47 25 84q10 41 34.5 62.5t53.5 21.5q10 0 23 -4q55 -18 55 -78q0 -27 -8 -51q-20 -59 -39 -103l78 4q41 2 65.5 -20.5t24.5 -52.5 q0 -41 -80 -64q-31 -8 -103 -14q61 -104 76 -140q8 -18 -5 -45.5t-30 -35.5q-8 -4 -16 -5q-16 0 -34.5 12.5t-26.5 33.5q-10 18 -66 92q-27 -51 -45 -78q-37 -55 -74 -55q-6 0 -18 4q-18 8 -30.5 25.5t-12.5 41.5q0 20 8 37q2 6 8 19.5t21 37.5l24 50l-102 -2 q-47 0 -76 22.5t-29 61.5z" />
<glyph unicode="+" horiz-adv-x="950" d="M33 565q0 16 2 27q4 31 33.5 55.5t64.5 30.5q8 2 72 2q123 0 203 -2l94 285q8 27 42 48t66 15q25 -6 46.5 -31.5t21.5 -58.5q0 -8 -4 -25l-27 -84l-47 -153l262 -4q27 0 50.5 -26t17.5 -60q-4 -31 -39 -65t-74 -34l-276 -2q-10 -29 -27 -86q-55 -174 -65 -194 q-33 -68 -97 -68q-18 0 -28 2q-29 4 -45.5 34t-12.5 65q8 33 78 247q-215 0 -238 4q-39 4 -56 23.5t-17 54.5z" />
<glyph unicode="," horiz-adv-x="348" d="M-170 -213q0 23 8 49q4 12 37 113q14 49 47 151.5t37 124.5q10 55 51 90t80 25q96 -23 96 -109q0 -18 -6 -41q-29 -106 -89 -219.5t-121.5 -185.5t-94.5 -61q-45 14 -45 63z" />
<glyph unicode="-" horiz-adv-x="731" d="M37 592q0 31 26.5 55.5t59.5 30.5q8 2 61 2l301 -6l144 -4q27 0 53.5 -26t26.5 -60q0 -31 -30 -65t-69 -34l-307 -2q-156 0 -180 4q-45 6 -65.5 32t-20.5 73z" />
<glyph unicode="." horiz-adv-x="368" d="M-86 137q0 61 44 105.5t108 44.5q74 0 111.5 -42t37.5 -108q0 -59 -59.5 -105t-124.5 -46q-117 -1 -117 151z" />
<glyph unicode="/" horiz-adv-x="634" d="M-293 -154q0 41 21 70q90 123 282 397q266 375 434 605.5t291 379.5q37 47 96 48q37 0 74 -23q23 -16 23 -47t-25 -70q-272 -389 -599 -843.5t-435 -583.5q-23 -29 -68 -29q-39 0 -67 23q-13 8 -20 29.5t-7 43.5z" />
<glyph unicode="0" horiz-adv-x="1120" d="M53 442q0 31 4 93q16 176 110.5 340.5t237 268t295.5 103.5q203 0 304.5 -119.5t101.5 -334.5q0 -29 -4 -95q-16 -172 -104.5 -338.5t-232.5 -273t-323 -106.5q-196 0 -292.5 126.5t-96.5 335.5zM283 465q-6 -90 41 -166t122 -76q107 0 200 76t152.5 192.5t69.5 229.5 q2 16 2 49q0 104 -42 173t-144 69q-57 0 -80.5 -13.5t-35 -30t-19.5 -24.5q-6 -6 -55 -92l-48 -84q-16 -23 -29.5 -32t-28.5 -13t-23 -6q-27 -8 -50.5 -84t-31.5 -168z" />
<glyph unicode="1" horiz-adv-x="555" d="M-27 70q0 16 2 24q23 119 41.5 198t44.5 154q68 201 142 377q57 137 141 289q82 143 166 143q39 0 74 -28q63 -51 63 -119q0 -63 -63 -162q-137 -217 -250 -502q-72 -176 -101 -280l-12 -45q-14 -70 -38.5 -110t-82.5 -40q-39 0 -74.5 18.5t-48.5 51.5q-4 10 -4 31z" />
<glyph unicode="2" horiz-adv-x="880" d="M-39 221q0 31 10 76q23 92 102 162.5t226 169.5q117 78 182.5 130t104.5 115q72 115 71 154q0 29 -28 29q-23 0 -49.5 -12.5t-34.5 -16.5q-35 -20 -72 -49q-139 -94 -174 -102q-8 -2 -23 -3q-31 0 -56 16.5t-38 43.5q-12 25 -12 57q0 31 11.5 58.5t33.5 42.5q10 6 35 26 q106 76 195.5 125t175.5 49q27 0 61 -10q117 -39 168 -112.5t51 -165.5q0 -84 -29.5 -152t-68.5 -113t-96 -98q-63 -57 -269 -188q-150 -98 -180 -123q-35 -29 -54.5 -50.5t-19.5 -50.5q0 -35 29 -46t63 -9q225 20 316 21q35 0 49 -2q39 -4 57 -23q23 -23 23 -55 q0 -84 -108.5 -120t-258.5 -36q-131 0 -190 16q-94 23 -148.5 89.5t-54.5 156.5z" />
<glyph unicode="3" horiz-adv-x="886" d="M-78 256q0 39 33 72t72 32q27 0 51 -16t39 -39q33 -61 99.5 -99t135.5 -38q72 0 125 43t76 135q8 37 8 72q0 57 -23.5 103t-78.5 67q-45 16 -78 50t-33 77q0 18 6 33q12 41 57.5 69.5t90.5 47t61 26.5q63 29 95 61.5t32 63.5q0 29 -26.5 45t-73.5 16q-74 0 -158 -39 q-25 -10 -43 -10q-41 0 -73.5 34t-41.5 66q-2 6 -2 19q0 66 86 104.5t191 38.5q39 0 69 -6q129 -25 212 -92.5t83 -185.5q0 -90 -73.5 -167t-171.5 -110q-31 -10 -31 -35q0 -18 14 -32q63 -63 94 -142.5t31 -161.5q0 -84 -30.5 -157.5t-83.5 -120.5q-66 -55 -150 -85 t-172 -30q-80 0 -151.5 23.5t-127.5 66.5q-55 43 -97 96.5t-42 104.5z" />
<glyph unicode="4" horiz-adv-x="962" d="M123 893q0 154 106 330q33 55 82 55q23 0 44.5 -12.5t31.5 -26.5q31 -45 31 -102q0 -37 -9.5 -72t-11.5 -41q-25 -86 -24 -139q0 -74 33.5 -112t103.5 -81q55 -33 104 -49l113 342l27 84q20 68 54 100.5t65.5 42t31.5 5.5q113 -27 113 -140q0 -53 -25 -119l-268 -718 q-57 -156 -108.5 -213.5t-86.5 -57.5q-8 0 -14 2t-8 4q-74 20 -74 121q0 117 92 314q-197 88 -300 210.5t-103 272.5z" />
<glyph unicode="5" horiz-adv-x="954" d="M-29 223q0 23 13 37q31 41 71 41q41 0 103 -39q55 -37 123.5 -57.5t134.5 -20.5q70 0 122 26t74 79q12 29 13 63q0 45 -16.5 94.5t-43.5 81.5q-41 47 -89 89t-120 96q-100 76 -129 102q-59 53 -59 146q0 111 72.5 174t189.5 82q78 12 174 12q170 0 289 -31 q96 -25 96 -102q0 -35 -17.5 -69t-31.5 -42q-6 -4 -43 -4q-39 0 -162 8q-135 8 -188 8q-33 0 -58 -4q-23 -6 -38 -18t-15 -27q0 -27 45 -47q72 -33 152 -106.5t140.5 -168t80.5 -188.5q8 -39 8 -86q0 -121 -64.5 -225t-179.5 -150q-80 -32 -180 -32q-109 0 -212 39t-171 104 q-84 78 -84 135z" />
<glyph unicode="6" horiz-adv-x="1144" d="M63 465q0 137 54.5 268t154.5 219q113 96 269.5 145.5t312.5 49.5q96 0 175 -18.5t128 -51.5q37 -24 55.5 -57t18.5 -64q0 -47 -37 -69q-6 -4 -20 -4q-20 0 -80 18q-76 25 -133 29q-18 2 -56 2q-143 0 -288.5 -54.5t-237.5 -150.5q-41 -45 -62.5 -105.5t-21.5 -125.5 q0 -33 2 -50q74 70 164 111q88 39 178 39q139 0 244 -92q55 -49 84.5 -113.5t29.5 -132.5q0 -61 -26.5 -118.5t-79.5 -102.5q-47 -39 -124 -61.5t-167 -22.5q-131 0 -252 51t-196 158q-88 125 -89 303zM360 274q47 -63 111 -90q76 -29 131 -28q90 0 154 61q20 18 20 51 q0 27 -14 52.5t-39 35.5q-68 31 -125 31q-109 0 -238 -113z" />
<glyph unicode="7" horiz-adv-x="993" d="M47 559q-6 35 29 72t129 63q96 27 208.5 42.5t221.5 15.5q14 57 14 88q0 94 -82 94q-41 0 -102 -25q-106 -43 -176 -43q-18 0 -27 2q-29 4 -51.5 14.5t-28.5 26.5q-4 12 -4 21q0 49 64.5 101t144.5 81q10 4 47 14.5t92.5 20.5t110.5 10q100 0 170 -42t84 -144 q4 -41 4 -58q0 -88 -33 -186q131 -37 131 -119q0 -100 -231 -92q-51 -80 -99.5 -140.5t-111.5 -131.5q-147 -170 -260 -226q-61 -31 -125 -30q-63 0 -86 37q-10 20 -10 36q0 37 34.5 73t104.5 91q193 150 305 297q-39 -2 -98.5 -12t-85.5 -14q-53 -6 -113 -19q-39 -6 -67 -6 q-47 0 -71 20.5t-32 67.5z" />
<glyph unicode="8" horiz-adv-x="872" d="M-41 258q0 72 21 148q35 133 131 209.5t202 101.5q-31 33 -49 89t-18 114q0 14 4 43q23 150 121 223.5t250 73.5q20 0 69 -5q115 -12 180.5 -91t65.5 -199q0 -35 -6 -76q-31 -180 -316 -266q92 -150 93 -289q0 -57 -15 -115q-66 -258 -413 -258q-49 0 -70 2 q-109 6 -179.5 84t-70.5 211zM168 293q0 -57 37 -92t84 -39q174 -10 209 125q6 25 6 49q0 43 -14.5 79t-43.5 95q-16 29 -20 39q-92 -16 -151.5 -58t-92.5 -129q-14 -34 -14 -69zM465 922q0 -66 43 -152q92 20 133 49t59 82q8 25 9 55q0 45 -18.5 78t-51.5 39q-20 4 -33 4 q-59 0 -100 -40t-41 -115z" />
<glyph unicode="9" horiz-adv-x="1093" d="M-141 92q0 49 37 70q6 4 20 4q20 0 80 -19q76 -25 133 -28q18 -2 55 -2q143 0 288.5 54t238.5 151q41 45 62.5 105t21.5 126q0 33 -2 49q-74 -70 -164 -110q-88 -39 -178 -39q-139 0 -244 92q-55 49 -85 113.5t-30 132.5q0 61 26.5 118.5t80.5 102.5q47 39 123.5 61.5 t166.5 22.5q131 0 252 -51.5t197 -157.5q88 -125 88 -303q0 -137 -54 -268.5t-155 -219.5q-113 -96 -269.5 -145t-311.5 -49q-96 0 -175 18.5t-129 50.5q-37 25 -55 57.5t-18 63.5zM313 780q0 -27 14.5 -52.5t39.5 -35.5q68 -30 125 -30q109 0 237 112q-47 63 -111 90 q-76 29 -131 29q-90 0 -153 -62q-20 -18 -21 -51z" />
<glyph unicode=":" horiz-adv-x="430" d="M-66 137q0 61 44 105.5t108 44.5q74 0 111.5 -42t37.5 -108q0 -59 -59.5 -105t-124.5 -46q-117 -1 -117 151zM139 817q0 61 44 105.5t108 44.5q74 0 111.5 -42t37.5 -108q0 -59 -59.5 -105t-124.5 -46q-117 -1 -117 151z" />
<glyph unicode=";" horiz-adv-x="389" d="M-109 -213q0 23 8 49q4 12 37 113q14 49 47 151.5t37 124.5q10 55 51 90t80 25q96 -23 96 -109q0 -18 -6 -41q-29 -106 -89 -219.5t-121.5 -185.5t-94.5 -61q-45 14 -45 63zM119 817q0 61 44 105.5t108 44.5q74 0 111.5 -42t37.5 -108q0 -59 -59.5 -105t-124.5 -46 q-117 -1 -117 151z" />
<glyph unicode="&#x3c;" horiz-adv-x="899" d="M80 567q0 47 39 78q127 106 588 262q63 23 100 23q45 0 63 -35q13 -24 13 -49q0 -55 -58 -96q-41 -31 -110.5 -58.5t-200.5 -70.5q-23 -8 -84 -28t-102 -38q18 -8 98 -39t149.5 -65.5t126.5 -71.5q45 -29 67 -50.5t22 -47.5q0 -10 -9 -31q-12 -25 -35.5 -39t-54.5 -14 q-35 0 -65 16l-271 147q-147 82 -221 121q-27 14 -41 38t-14 48z" />
<glyph unicode="=" horiz-adv-x="956" d="M14 436q0 31 27 55.5t59 30.5q8 2 82 2q164 0 447 -8l162 -2q27 0 53 -25.5t26 -60.5q0 -31 -29.5 -64.5t-68.5 -33.5l-428 -2q-219 0 -244 4q-45 6 -65.5 31.5t-20.5 72.5zM106 766q0 31 27 55.5t60 30.5q8 2 81 2q164 0 447 -8l162 -2q27 0 53.5 -25.5t26.5 -60.5 q0 -31 -30 -65t-69 -34l-428 -2q-219 0 -243 5q-45 6 -66 31.5t-21 72.5z" />
<glyph unicode="&#x3e;" horiz-adv-x="901" d="M25 305q0 55 57 96q41 31 110.5 58.5t200.5 70.5q23 8 84.5 28t102.5 38q-18 8 -98.5 39t-150 65.5t-126.5 71.5q-45 29 -66.5 50.5t-21.5 47.5q0 10 8 31q12 25 35.5 39t54.5 14q35 0 66 -16l270 -147q147 -82 221 -121q27 -15 41 -38.5t14 -47.5q0 -47 -39 -78 q-127 -106 -587 -262q-63 -23 -101 -23q-45 0 -63 35q-12 25 -12 49z" />
<glyph unicode="?" horiz-adv-x="942" d="M143 985q0 70 57.5 158t156 150.5t212.5 62.5q123 0 225.5 -50.5t162 -128t59.5 -153.5q0 -86 -34 -144.5t-83 -94t-129 -78.5q-98 -53 -150.5 -100.5t-64.5 -125.5q-6 -35 -30.5 -55t-53.5 -27.5t-45 -3.5q-39 8 -63.5 36t-24.5 77q0 20 2 33q14 98 91 167.5t208 149.5 q88 53 129 87t41 71q0 55 -71.5 93t-159.5 38q-96 0 -150.5 -59.5t-85.5 -145.5q-10 -29 -40 -48.5t-60 -19.5q-16 0 -29 7q-31 18 -50.5 41.5t-19.5 62.5zM244 137q0 61 44 105.5t107 44.5q74 0 112 -42t38 -108q0 -59 -59.5 -105t-125.5 -46q-116 -1 -116 151z" />
<glyph unicode="@" horiz-adv-x="1656" d="M53 358q0 96 31 197q63 203 206.5 374t333 271t382.5 100q163 0 290 -74.5t198 -204.5t71 -288q0 -94 -23 -178q-33 -135 -95.5 -232.5t-139 -147.5t-150.5 -50q-33 0 -67 12q-66 25 -115 111q-45 -41 -108.5 -63.5t-127.5 -22.5q-78 0 -133 28q-68 33 -103.5 97.5 t-35.5 152.5q0 123 70 260q80 162 198.5 233t233.5 71q29 0 43 -3q86 -10 110 -104q16 16 31 23q23 8 39 8q37 0 37 -45q0 -33 -16.5 -89.5t-20.5 -68.5q-29 -92 -43 -151.5t-14 -116.5q0 -70 18 -105t49 -35q43 0 91 66t73 172q16 63 16 137q0 174 -108.5 286t-300.5 112 q-154 0 -290 -68t-233.5 -188.5t-142.5 -278.5q-27 -94 -26 -180q0 -154 86 -241t249 -87q33 0 50 2q68 6 116 6q86 0 127 -17.5t41 -51.5q0 -55 -77.5 -94t-254.5 -52q-162 -10 -290.5 56.5t-201.5 188.5t-73 273zM688 461q0 -68 49 -96q19 -13 62 -13q47 0 86 24.5 t55 80.5q8 51 39 141q18 57 20 78q4 18 5 51q0 66 -46 76l-18 2q-53 0 -111.5 -48t-103.5 -151q-37 -90 -37 -145z" />
<glyph unicode="[" horiz-adv-x="612" d="M-39 6q0 70 23 146l41 157q59 223 132.5 492.5t106.5 351.5q49 123 151.5 206t229.5 93q16 2 49 2q152 0 140 -90q-10 -66 -43 -87.5t-89 -21.5l-75 2q-68 0 -116 -50t-67 -126l-256 -938q-16 -66 -16 -102q0 -45 21.5 -66.5t72.5 -21.5q59 0 98 -28.5t39 -86.5 q0 -51 -28.5 -73.5t-61 -24.5t-118.5 -2q-39 0 -93.5 25.5t-97.5 85t-43 157.5z" />
<glyph unicode="\" horiz-adv-x="757" d="M84 1268q0 45 21.5 80.5t62.5 48.5q6 2 16 2q27 0 52.5 -24.5t37.5 -61.5q76 -217 215.5 -736.5t188.5 -750.5q6 -29 -20.5 -71t-55.5 -52q-6 -2 -16 -2q-31 0 -61.5 25.5t-41.5 64.5q-113 432 -239 875q-33 123 -73 262t-81 295q-6 23 -6 45z" />
<glyph unicode="]" horiz-adv-x="614" d="M-203 -174q10 66 43 87t88 21l76 -2q68 0 116 50.5t66 126.5l256 938q16 66 17 102q0 45 -21.5 66.5t-72.5 21.5q-59 0 -98.5 28.5t-39.5 86.5q0 51 29 73.5t61.5 24.5t118.5 2q39 0 93.5 -25.5t97.5 -85t43 -157.5q0 -70 -23 -146l-41 -157q-59 -223 -133 -492.5 t-106 -351.5q-49 -123 -151.5 -206t-229.5 -93q-16 -2 -49 -2q-152 0 -140 90z" />
<glyph unicode="^" horiz-adv-x="675" d="M94 911q0 23 12 41q20 31 73.5 96.5t76.5 94.5q96 115 113 141q27 43 76 76t98 26q29 -2 56.5 -29.5t35.5 -49.5q8 -23 53 -187q51 -178 55 -188q5 -17 5 -23q0 -35 -28 -67.5t-65 -32.5q-23 0 -47 21.5t-33 52.5q-10 31 -71 299l-193 -246q-29 -39 -73.5 -66.5 t-79.5 -27.5q-27 0 -45.5 21.5t-18.5 47.5z" />
<glyph unicode="_" horiz-adv-x="880" d="M-162 100q0 31 26.5 55.5t59.5 30.5q8 2 88 2q188 0 496 -8l168 -2q27 0 53.5 -25.5t26.5 -60.5q0 -31 -30 -64.5t-69 -33.5l-467 -2q-242 0 -266 4q-45 6 -65.5 31.5t-20.5 72.5z" />
<glyph unicode="{" horiz-adv-x="696" d="M-8 551q0 4 4 20q10 35 38.5 57.5t59.5 22.5q16 0 53 10.5t72 32t47 49.5q8 18 70 211q57 172 67 199q45 125 152 206t240 93q45 4 63 4q113 0 103 -82q-8 -68 -45 -84t-83.5 -15t-62.5 1q-68 0 -131.5 -60.5t-83.5 -134.5q-25 -88 -60.5 -202.5t-62.5 -200.5 q-12 -35 -52 -61.5t-93 -45.5q37 -14 59.5 -42.5t15.5 -65.5q-8 -49 -55 -193q-25 -74 -41 -127q-16 -55 -16 -92q0 -55 28.5 -87t81.5 -32q55 0 94.5 -23.5t39.5 -74.5q0 -59 -30 -78.5t-89 -19.5l-92 2q-37 0 -90.5 23.5t-93.5 81t-40 149.5q0 72 27 160q20 61 41 135 l35 112q8 23 -15.5 43.5t-57.5 33.5t-46 13q-14 0 -32.5 18.5t-18.5 43.5z" />
<glyph unicode="|" horiz-adv-x="382" d="M-147 -174q0 8 4 29l503 1570q8 27 29 41.5t47 14.5q14 0 33 -6q37 -12 59.5 -41t22.5 -62q0 -20 -4 -31l-555 -1538q-8 -25 -26.5 -37t-41.5 -12q-35 0 -53 20.5t-18 51.5z" />
<glyph unicode="}" horiz-adv-x="696" d="M-246 -184q8 68 45 84t83 15t63 -1q68 0 131 60.5t84 134.5q25 88 60.5 202.5t62.5 200.5q12 35 52 61.5t93 44.5q-37 14 -59.5 43t-16.5 66q8 49 56 193q25 74 41 127q16 55 16 92q0 55 -28.5 86.5t-82.5 31.5q-55 0 -94 24t-39 75q0 59 30 78.5t89 19.5l92 -2 q37 0 90 -23.5t93 -81t40 -149.5q0 -72 -26 -160q-20 -61 -41 -135l-35 -112q-8 -23 15.5 -43.5t57 -34t46.5 -13.5q14 0 32.5 -18t18.5 -43q0 -4 -4 -21q-10 -35 -39 -57t-59 -22q-16 0 -53.5 -10.5t-72 -32t-46.5 -50.5q-8 -18 -70 -210q-57 -172 -68 -199 q-45 -125 -151.5 -206t-239.5 -93q-45 -4 -63 -4q-113 0 -103 82z" />
<glyph unicode="~" horiz-adv-x="962" d="M47 506q0 76 21.5 128t70.5 87q96 68 180 67q59 0 102.5 -28.5t92.5 -77.5l37 -39q37 -41 61.5 -58.5t53.5 -17.5q27 0 53 22.5t29 57.5q2 47 32.5 77t77.5 30q57 0 57 -95q0 -121 -73.5 -187t-186.5 -66q-88 0 -138 30.5t-99 85.5q-31 33 -50.5 49.5t-43.5 22.5 q-31 8 -57.5 -19.5t-28.5 -70.5q-2 -55 -26 -84t-62 -29q-103 0 -103 115z" />
<glyph unicode="&#xa9;" horiz-adv-x="1417" d="M45 471q0 63 10 113q70 354 277 501.5t493 147.5q158 0 287 -69.5t204 -190.5t75 -268q0 -59 -13 -121q-39 -182 -152.5 -338t-275.5 -247t-338 -91q-158 0 -287.5 75.5t-204.5 204.5t-75 283zM203 479q0 -109 53 -200t149.5 -145t217.5 -54q139 0 261 65.5t204.5 181 t107.5 257.5q10 61 10 104q0 176 -109.5 285.5t-293.5 109.5q-463 0 -588 -499q-12 -51 -12 -105zM414 489q0 90 41 197q57 147 157.5 212t206.5 65q27 0 39 -2q63 -8 109.5 -53.5t56.5 -102.5q2 -12 2 -33q0 -39 -20 -76q-29 -53 -80 -53q-29 0 -46.5 19.5t-17.5 48.5 q0 23 8 39t-5 36.5t-36 24.5q-6 2 -16 2q-51 0 -107.5 -53t-91.5 -160q-20 -68 -20 -121q0 -86 55 -119q6 -4 21 -4q27 0 57.5 25t40.5 55q8 23 33.5 38t50.5 15q27 0 45 -23.5t18 -51.5q0 -8 -4 -25q-27 -72 -98.5 -129t-153.5 -57q-49 0 -92 20q-71 35 -112 104.5 t-41 161.5z" />
<glyph unicode="&#xb0;" horiz-adv-x="737" d="M221 1112q0 37 4 55q25 133 125.5 205t241.5 72q119 0 190.5 -70.5t71.5 -183.5q0 -29 -6 -64q-25 -137 -116 -216t-226 -79q-123 0 -204 81t-81 200zM403 1100q0 -47 32 -76t85 -29q66 0 113 46t47 118q0 47 -31 77t-82 30q-59 0 -103 -38t-56 -98q-4 -20 -5 -30z" />
<glyph unicode="&#xb7;" horiz-adv-x="368" d="M41 618q0 61 44 105.5t108 44.5q74 0 111.5 -42t37.5 -108q0 -59 -59.5 -105t-124.5 -46q-117 -1 -117 151z" />
<glyph unicode="&#xd7;" horiz-adv-x="825" d="M20 311q0 53 37 88l230 193l-29 49q-92 156 -100 178q-8 18 -8 39q0 49 63 88q20 14 47 15q43 0 70 -31q14 -18 121 -201q170 141 206 168q37 25 66 25q37 0 68 -37q12 -14 12 -39q0 -43 -35 -82q-12 -14 -227 -193l73 -131q45 -82 56 -98q8 -8 8 -29q0 -23 -13.5 -47 t-35.5 -39q-20 -14 -58 -14q-55 0 -77 37q-47 76 -115 190l-227 -184q-20 -18 -60 -18q-37 0 -57 22q-14 18 -15 51z" />
<glyph unicode="&#xf7;" horiz-adv-x="956" d="M41 608q0 31 26.5 55.5t59.5 30.5q8 2 86 2q180 0 479 -8l166 -2q27 0 53.5 -25.5t26.5 -60.5q0 -31 -29.5 -64.5t-68.5 -33.5l-455 -2q-233 0 -258 4q-45 6 -65.5 31.5t-20.5 72.5zM276 285q0 55 40 95t98 40q66 0 99.5 -38t33.5 -97q0 -55 -53.5 -95t-112.5 -40 q-105 0 -105 135zM397 901q0 55 40 95t98 40q66 0 99.5 -37.5t33.5 -97.5q0 -55 -53.5 -95t-112.5 -40q-105 0 -105 135z" />
<glyph unicode="&#x5b0;" d="M406 -326q0 31 21.5 53.5t53.5 22.5q37 0 56.5 -21.5t19.5 -54.5q0 -31 -29.5 -54t-62.5 -23q-59 -1 -59 77zM455 -94q0 31 21.5 53.5t53.5 22.5q37 0 56.5 -21.5t19.5 -54.5q0 -31 -29.5 -54.5t-62.5 -23.5q-59 0 -59 78z" />
<glyph unicode="&#x5b1;" d="M219 -86q0 31 21.5 53.5t54.5 22.5q37 0 56.5 -21.5t19.5 -54.5q0 -31 -30 -54.5t-62 -23.5q-60 0 -60 78zM287 -291q0 31 21.5 53.5t53.5 22.5q37 0 56.5 -21.5t19.5 -54.5q0 -31 -29.5 -54.5t-62.5 -23.5q-59 0 -59 78zM446 -100q0 31 21.5 53t54.5 22q37 0 56.5 -21.5 t19.5 -53.5q0 -31 -29.5 -54.5t-62.5 -23.5q-60 0 -60 78zM616 -322q0 31 21.5 53.5t54.5 22.5q37 0 56.5 -21.5t19.5 -54.5q0 -31 -29.5 -54t-62.5 -23q-60 -1 -60 77zM662 -109q0 31 21.5 53.5t53.5 22.5q37 0 56.5 -21.5t19.5 -54.5q0 -31 -29.5 -54t-62.5 -23 q-59 -1 -59 77z" />
<glyph unicode="&#x5b2;" d="M180 -100q0 23 17.5 36t46.5 13q37 0 125 6l161 8q29 0 47.5 -19.5t18.5 -45.5q0 -31 -20.5 -49.5t-45.5 -18.5q-4 0 -147 8l-139 8q-27 2 -45.5 17.5t-18.5 36.5zM616 -315q0 31 21.5 53t54.5 22q37 0 56.5 -21.5t19.5 -53.5q0 -31 -29.5 -54.5t-62.5 -23.5 q-60 0 -60 78zM676 -102q0 31 21.5 53t54.5 22q37 0 56 -21.5t19 -53.5q0 -31 -29.5 -54.5t-62.5 -23.5q-59 0 -59 78z" />
<glyph unicode="&#x5b3;" d="M203 -92q0 23 16.5 36t44.5 13q37 0 125 6l162 6q29 0 47 -18.5t18 -46.5q0 -31 -20.5 -48.5t-44.5 -17.5q-49 0 -96 2v-147q0 -41 -16.5 -58.5t-53.5 -17.5q-27 0 -47.5 19.5t-20.5 48.5q0 10 2 16l35 145q-61 4 -90 9q-27 4 -44 17t-17 36zM631 -315q0 31 21.5 53 t54.5 22q36 0 55.5 -21.5t19.5 -53.5q0 -31 -29.5 -54.5t-62.5 -23.5q-59 0 -59 78zM676 -102q0 31 21.5 53t54.5 22q36 0 55.5 -21.5t19.5 -53.5q0 -31 -29.5 -54.5t-62.5 -23.5q-59 0 -59 78z" />
<glyph unicode="&#x5b4;" d="M430 -150q0 37 26.5 63t63.5 26q43 0 65.5 -25t22.5 -64q0 -35 -35.5 -61.5t-72.5 -26.5q-70 0 -70 88z" />
<glyph unicode="&#x5b5;" d="M358 -147q0 31 21.5 53t54.5 22q37 0 56.5 -21.5t19.5 -53.5q0 -31 -29.5 -54.5t-62.5 -23.5q-60 0 -60 78zM565 -147q0 31 21.5 53t54.5 22q37 0 56.5 -21.5t19.5 -53.5q0 -31 -30 -54.5t-62 -23.5q-60 0 -60 78z" />
<glyph unicode="&#x5b6;" d="M338 -92q0 31 21.5 53.5t54.5 22.5q37 0 56 -21.5t19 -54.5q0 -31 -29.5 -54.5t-62.5 -23.5q-59 0 -59 78zM408 -299q0 31 21.5 53.5t53.5 22.5q37 0 56.5 -21.5t19.5 -54.5q0 -31 -29.5 -54.5t-62.5 -23.5q-59 0 -59 78zM565 -104q0 31 21.5 53t54.5 22q37 0 56.5 -21.5 t19.5 -53.5q0 -31 -30 -54.5t-62 -23.5q-60 0 -60 78z" />
<glyph unicode="&#x5b7;" d="M395 -180q0 23 17.5 37t48.5 14l135 6l164 8q31 0 50 -19.5t19 -49.5q0 -33 -21.5 -51.5t-47.5 -18.5q-109 0 -299 18q-29 2 -47.5 17.5t-18.5 38.5z" />
<glyph unicode="&#x5b8;" d="M389 -119q0 25 18.5 40.5t49.5 15.5l143 6l172 8q31 0 51.5 -21.5t20.5 -52.5q0 -33 -22.5 -52.5t-49.5 -19.5l-115 5q2 -41 6.5 -74t4.5 -47q0 -59 -12.5 -80t-63.5 -21q-37 0 -58.5 20.5t-21.5 51.5q0 23 8 41l49 115q-80 4 -112 8q-31 4 -49.5 18.5t-18.5 38.5z" />
<glyph unicode="&#x5b9;" d="M725 1178q0 37 26.5 62.5t63.5 25.5q43 0 65.5 -24.5t22.5 -63.5q0 -35 -36 -61.5t-72 -26.5q-70 0 -70 88z" />
<glyph unicode="&#x5ba;" d="M690 1161q0 37 26.5 62.5t63.5 25.5q43 0 65.5 -24.5t22.5 -63.5q0 -35 -34.5 -60.5t-73.5 -25.5t-54.5 22.5t-15.5 63.5z" />
<glyph unicode="&#x5bb;" d="M291 -86q0 31 21.5 53.5t54.5 22.5q37 0 56 -21.5t19 -54.5q0 -31 -29.5 -54.5t-62.5 -23.5q-59 0 -59 78zM414 -240q0 31 21.5 53.5t53.5 22.5q37 0 56.5 -21.5t19.5 -54.5q0 -31 -29.5 -54t-62.5 -23q-59 -1 -59 77zM537 -403q0 31 21.5 53t53.5 22q37 0 56.5 -21.5 t19.5 -53.5q0 -31 -29.5 -54.5t-62.5 -23.5q-59 0 -59 78z" />
<glyph unicode="&#x5bc;" d="M455 684q0 31 21.5 53.5t53.5 22.5q37 0 56.5 -21.5t19.5 -54.5q0 -31 -29.5 -54.5t-62.5 -23.5q-59 0 -59 78z" />
<glyph unicode="&#x5be;" horiz-adv-x="731" d="M174 985q0 39 24.5 68.5t67.5 33.5q66 4 111 5q100 0 235 -9l99 -4q27 0 53.5 -25.5t26.5 -60.5q0 -41 -28 -66.5t-73 -29.5q-22 0 -61 -6q-133 -14 -228 -14q-78 0 -135 8q-45 8 -68.5 35.5t-23.5 64.5z" />
<glyph unicode="&#x5bf;" d="M479 1188q0 20 16.5 32.5t43.5 12.5l137 6l170 8q29 0 46 -18.5t17 -44.5q0 -29 -19.5 -46.5t-43.5 -17.5q-176 1 -307 17q-27 4 -43.5 17t-16.5 34z" />
<glyph unicode="&#x5c1;" d="M690 1161q0 37 26.5 62.5t63.5 25.5q43 0 65.5 -24.5t22.5 -63.5q0 -35 -34.5 -60.5t-73.5 -25.5t-54.5 22.5t-15.5 63.5z" />
<glyph unicode="&#x5c2;" d="M690 1161q0 37 26.5 62.5t63.5 25.5q43 0 65.5 -24.5t22.5 -63.5q0 -35 -34.5 -60.5t-73.5 -25.5t-54.5 22.5t-15.5 63.5z" />
<glyph unicode="&#x5c7;" d="M375 -117q0 16 12 26.5t33 10.5l209 8q20 0 33.5 -13t13.5 -36q0 -20 -15.5 -33.5t-31.5 -13.5l-78 4q2 -29 5 -50.5t3 -29.5q0 -39 -8 -53t-41 -14q-25 0 -39 13t-14 36q0 10 6 26l31 74l-74 6q-45 8 -45 39z" />
<glyph unicode="&#x5d0;" horiz-adv-x="1099" d="M-102 -35q0 47 16 129q16 72 106.5 321t185.5 483.5t126 279.5q70 96 151 96q18 0 41 -6q23 -8 37 -35t14 -66q0 -47 -22 -92q-61 -129 -238.5 -557t-197.5 -526q-33 -143 -131 -144q-16 0 -37 5q-51 12 -51 112zM369 336q12 162 128.5 287t249 196.5t197.5 89.5 q41 12 84 13q70 0 98 -45q18 -27 19 -58q0 -39 -30 -74.5t-87 -56.5q-152 -53 -287 -143t-135 -217q0 -82 49.5 -123t135.5 -78q39 -14 57 -25.5t18 -27.5q0 -51 -50 -86t-122 -27q-59 6 -139 50t-137.5 127t-48.5 198z" />
<glyph unicode="&#x5d1;" horiz-adv-x="1314" d="M-53 -119q0 53 37 111q14 20 34 57q100 164 181.5 270.5t148.5 112.5q39 4 66.5 -15.5t62.5 -60.5q41 -47 77 -72.5t89 -25.5q70 0 162 47t155.5 118t57.5 138q-8 88 -90 140.5t-180 52.5q-72 0 -139.5 -14.5t-157.5 -41.5q-119 -35 -179 -41q-53 -4 -73 -4 q-78 0 -109 43q-18 29 -18 54q0 57 88 110q39 23 132 52.5t209.5 51t225.5 21.5q35 0 53 -2q117 -6 231.5 -63.5t186.5 -155.5t66 -219q-6 -117 -107.5 -230.5t-247 -186.5t-270.5 -73q-88 0 -157.5 33t-119.5 80q-170 -246 -204 -313q-35 -70 -107 -70q-23 0 -59 12 q-19 8 -32 30.5t-13 53.5z" />
<glyph unicode="&#x5d2;" horiz-adv-x="1050" d="M-98 131q0 219 160.5 379t394.5 258q-113 109 -148 225q-16 49 -16 94q0 70 55 105q25 16 55 16q47 0 93.5 -43t74.5 -118q51 -125 154 -191q76 18 119 18q106 0 169.5 -33.5t63.5 -84.5q0 -37 -27.5 -75t-84 -64.5t-138.5 -26.5q-61 0 -137 28q-156 -51 -282.5 -133 t-200.5 -174t-74 -174q0 -98 52.5 -170.5t148.5 -142.5q27 -18 42 -46t15 -57q0 -43 -37 -73q-16 -14 -49 -15q-35 0 -78 17.5t-80 46.5q-115 88 -180 199.5t-65 234.5z" />
<glyph unicode="&#x5d3;" horiz-adv-x="1062" d="M90 590q-10 80 86 108.5t223 28.5q31 0 51.5 -1t26.5 -1q115 35 248 112.5t182 133.5q37 41 37 82q0 33 -27.5 57.5t-80.5 30.5q-16 2 -54 2q-80 0 -166 -18.5t-145 -43.5q-39 -16 -89 -26.5t-95 -10.5q-84 0 -111 33q-18 29 -18 56q0 31 17.5 60.5t37.5 47.5 q61 51 220 89t300 38q27 0 72 -4q147 -14 247.5 -92t100.5 -213q0 -121 -73.5 -211t-171 -143.5t-183.5 -79.5q90 -39 90 -201q0 -16 -4 -70q-12 -123 -41 -186.5t-60.5 -104t-43.5 -57.5q-33 -45 -93 -45q-39 0 -66.5 20.5t-27.5 55.5q0 20 13 45q53 98 78.5 172t25.5 135 q0 51 -35 80t-119 37l-28 2q-29 0 -99 -8q-55 -10 -98 -11q-53 0 -86 23t-41 78z" />
<glyph unicode="&#x5d4;" horiz-adv-x="1333" d="M-6 76q0 61 65 119q74 63 120 149t75 213q8 39 44 60.5t77 21.5q31 0 49 -10q61 -31 61 -109q0 -35 -12 -82q-31 -109 -102.5 -227.5t-151.5 -179.5q-80 -63 -129 -64q-18 0 -35 8q-26 15 -43.5 41.5t-17.5 59.5zM82 922q0 31 24.5 64.5t71.5 62.5q117 72 253 109.5 t274 37.5q207 0 366.5 -82t220.5 -235q31 -80 31 -162q0 -145 -83 -285.5t-199.5 -250t-219.5 -171.5q-59 -39 -116 -39q-55 0 -78 49q-6 16 -6 33q0 61 96 150l45 41q147 131 243.5 250.5t96.5 244.5q0 106 -98.5 168t-260.5 62q-215 0 -458 -109q-57 -27 -105 -26 q-57 0 -86 45q-12 23 -12 43z" />
<glyph unicode="&#x5d5;" horiz-adv-x="477" d="M-72 33q0 47 25 131q4 16 45 119q80 209 143.5 387t118.5 368q35 123 74 181.5t100 58.5q117 0 117 -129q0 -59 -25 -139q-39 -129 -123 -336t-167.5 -390.5t-114.5 -232.5q-57 -90 -117 -90q-20 0 -47 10q-29 13 -29 62z" />
<glyph unicode="&#x5d6;" horiz-adv-x="1107" d="M-186 -76q0 49 36.5 61.5t74.5 12.5h50q127 12 289 87t297 165q111 74 188.5 175t77.5 181q0 59 -47 92q-33 23 -90 23q-70 0 -147.5 -25.5t-200.5 -77.5q-90 -37 -106 -40q-8 -2 -25 -3q-55 0 -90 39t-35 91q0 47 33 79q31 31 243.5 284t264.5 318q31 39 67.5 59.5 t73.5 20.5q41 0 78 -24q47 -31 47 -92q0 -37 -17.5 -75t-50.5 -69l-301 -293q87 23 185 23q150 0 246 -75t96 -253q0 -184 -136.5 -343t-320.5 -267.5t-350 -169.5q-98 -35 -193 -35q-102 0 -169.5 38t-67.5 93z" />
<glyph unicode="&#x5d7;" horiz-adv-x="1347" d="M-55 104q0 49 35 113q39 70 182 350l61 119q-8 -2 -22 -2q-37 0 -63.5 17.5t-41.5 50.5q-6 12 -6 28q0 53 61.5 107.5t137.5 89.5q25 10 96 35q23 43 74 153q37 84 83 131t91 47q18 0 35 -8q57 -27 57 -90q0 -49 -35 -125l-16 -35q180 37 289 37q59 0 102 -12 q117 -33 194.5 -128t77.5 -220q0 -74 -24 -137q-43 -117 -140.5 -277t-211 -276.5t-203.5 -116.5q-27 0 -51 12q-51 25 -52 74q0 45 37 98.5t111 136.5l71 84q70 94 134.5 209t64.5 201q0 94 -96 111q-33 6 -72 6q-147 0 -366 -76q-109 -217 -215.5 -416.5t-145.5 -255.5 q-45 -61 -80 -92t-71 -31q-37 0 -59.5 23.5t-22.5 64.5z" />
<glyph unicode="&#x5d8;" horiz-adv-x="1155" d="M63 395q0 326 175.5 618t467 469t625.5 177q139 0 212 -23.5t73 -95.5q0 -59 -48 -83.5t-124 -24.5q-299 0 -558 -129t-415 -368t-156 -554q0 -74 56.5 -129t132.5 -55q119 0 196.5 108.5t110.5 265.5q14 68 54 101t81 33q57 0 89 -45.5t32 -114.5q0 -14 -4 -51 q-14 -92 -86 -219.5t-195 -222.5t-282 -95q-115 0 -215.5 54.5t-161 154.5t-60.5 229z" />
<glyph unicode="&#x5d9;" horiz-adv-x="423" d="M78 555q0 47 19.5 109.5t58.5 164.5q49 131 61 177q18 63 56 101t81 38q20 0 31 -4q80 -29 80 -111q0 -45 -25 -115l-16 -49q-57 -166 -119.5 -284.5t-144.5 -118.5q-14 0 -33 6q-49 20 -49 86z" />
<glyph unicode="&#x5da;" horiz-adv-x="880" d="M-150 -686q0 47 46 113q86 121 182 275.5t227 371.5q35 59 43 69q74 121 120 205t84 188.5t38 200.5q0 113 -68.5 185.5t-173.5 72.5q-29 0 -55 -6q-33 -6 -62 -6q-55 0 -86.5 26.5t-31.5 82.5q0 68 61.5 103.5t163.5 35.5q43 0 88 -6q209 -27 304 -157t95 -320 q0 -129 -40 -264.5t-107 -241.5l-53 -86q-172 -276 -314.5 -492.5t-261.5 -351.5q-68 -78 -133 -78q-23 0 -31 8q-35 29 -35 72z" />
<glyph unicode="&#x5db;" horiz-adv-x="1220" d="M-37 195q0 72 70 71q31 0 69.5 -12t72.5 -24.5t44 -16.5q84 -35 184 -35q111 0 215.5 46t180 130t106.5 195q16 61 17 108q0 137 -104.5 211t-262.5 74h-145q-123 0 -169 17.5t-46 78.5q0 90 147 129q102 25 199 25q168 0 310 -68.5t225 -188.5t83 -267q0 -72 -20 -146 q-86 -305 -289 -439t-438 -134q-123 0 -234 35q-100 32 -157.5 92.5t-57.5 118.5z" />
<glyph unicode="&#x5dc;" horiz-adv-x="542" d="M-90 156q0 31 2 45q14 135 96 198.5t182 79.5q72 416 218 862q102 317 275 473t394 156q76 0 160 -27.5t139 -72.5q43 -37 64.5 -75t21.5 -71q0 -29 -16 -45q-25 -23 -57 -22q-29 0 -60 13t-74 40q-53 31 -90 46.5t-75 15.5q-195 0 -330 -225.5t-208 -496t-142 -624.5 q-88 -455 -330 -455q-84 0 -127 50.5t-43 134.5z" />
<glyph unicode="&#x5dd;" horiz-adv-x="1163" d="M-111 -20q0 27 31 126t72 213q92 254 135 408q14 53 40 76.5t66 23.5q12 0 19 -2q10 59 53 103q53 53 167 107.5t235 54.5q16 0 53 -5q78 -10 158.5 -71.5t134 -166t53.5 -235.5q0 -125 -52.5 -227t-144.5 -161.5t-204 -59.5q-127 0 -231.5 85t-180.5 206 q-61 -166 -137 -336t-107 -199q-33 -31 -74 -31q-35 0 -60.5 25t-25.5 66zM381 707q72 -125 149.5 -214.5t182.5 -101.5q45 -4 85 29t64.5 94t24.5 135q0 64 -29 113t-69.5 77.5t-75.5 30.5q-66 4 -131.5 -26.5t-111.5 -67.5t-62 -55q-10 -12 -27 -14z" />
<glyph unicode="&#x5de;" horiz-adv-x="921" d="M-102 74q0 33 19.5 81t57.5 124q57 111 109.5 240.5t62.5 154.5l29 69q45 111 75 155t68 44q6 0 23 -4q41 -10 58.5 -35.5t21.5 -62.5t6 -113q0 -139 12 -231q10 -80 13 -138q55 156 185 452t169 364q59 113 133 112q23 0 47 -12q64 -31 64 -107q0 -53 -37 -143 q-31 -74 -79 -177.5t-69 -146.5q-168 -352 -245 -569q-25 -70 -64 -107.5t-82 -37.5q-16 0 -35 6q-53 20 -95 91t-66 193q-10 57 -15 107q-78 -201 -162 -309q-31 -39 -58.5 -60.5t-57.5 -21.5q-23 0 -41 10q-47 25 -47 72z" />
<glyph unicode="&#x5df;" horiz-adv-x="450" d="M-356 -627q0 47 17 101.5t50 103.5q37 55 142.5 317.5t215 574.5t164.5 517q27 104 81.5 207.5t129.5 103.5q8 0 29 -4q66 -20 66 -116q0 -78 -41 -195q-102 -311 -236.5 -651t-249 -599t-153.5 -321q-49 -78 -79 -110.5t-65 -32.5q-12 0 -28 6q-21 8 -32 34.5t-11 63.5z " />
<glyph unicode="&#x5e0;" horiz-adv-x="483" d="M-981 -475q8 61 127 61q31 0 76 -4q23 -2 73 -2q174 0 337 95.5t317.5 394.5t249.5 862q14 94 57 156.5t109 62.5q25 0 49 -8q63 -23 63 -103q0 -57 -35 -180q-4 -18 -11 -43.5t-13 -58.5q-57 -276 -170 -585.5t-338 -568.5t-557 -259q-166 0 -254 50t-80 130z" />
<glyph unicode="&#x5e1;" horiz-adv-x="1159" d="M45 397q0 23 4 76q18 193 108.5 299.5t200.5 149.5q-14 16 -16 34q-4 25 -4 35q0 39 22.5 65.5t65.5 47.5q51 27 124 39t148 12q33 0 82 -4q82 -8 157 -53t122 -127t47 -197q0 -20 -4 -61q-25 -231 -124 -405.5t-233.5 -266.5t-265.5 -92q-25 0 -37 2 q-158 16 -277.5 123.5t-119.5 322.5zM279 457q0 -119 44 -197t113 -86q10 -2 31 -2q129 0 222 113.5t142.5 259t49.5 225.5q0 84 -47.5 131t-102.5 47q-35 0 -93 -15t-112 -32q2 -4 2 -16q0 -14 -2 -23q-2 -18 -18 -35.5t-57 -52.5q-74 -61 -118 -117.5t-52 -138.5 q-2 -20 -2 -61z" />
<glyph unicode="&#x5e2;" horiz-adv-x="1060" d="M-16 262q0 215 138 407.5t361 315.5l-12 33l-59 149q-43 100 -63.5 158.5t-20.5 106.5q0 76 63 98q6 2 28.5 9t43.5 7q92 0 147 -149q49 -133 103 -314q158 49 301 50q139 0 172 -84q8 -25 8 -35q0 -86 -182 -111q-106 -14 -242 -61q49 -240 49 -432q0 -479 -309 -592 q-63 -23 -135 -23q-115 0 -210 60.5t-140 183.5q-41 109 -41 223zM215 260q0 -70 27 -141q41 -117 118 -117q18 0 50 10q32 13 73 67t71 152.5t30 231.5q0 135 -31 274q-154 -92 -246 -216t-92 -261z" />
<glyph unicode="&#x5e3;" horiz-adv-x="632" d="M-150 901q0 33 13 66q59 160 232 282.5t415 202.5q106 305 280.5 452.5t395.5 147.5q160 0 235.5 -68.5t75.5 -193.5q0 -133 -72.5 -220t-207 -142.5t-347.5 -100.5q-76 -16 -165 -41q-115 -324 -203 -860q-43 -264 -134.5 -359.5t-195.5 -95.5q-84 0 -127 50.5 t-43 134.5q0 156 83 229.5t194 93.5q63 385 149 701q-199 -96 -311 -252q-16 -25 -27 -37q-37 -57 -68.5 -89t-70.5 -32q-43 0 -72 39t-29 92zM811 1532l35 6q129 25 225 63.5t146.5 81.5t50.5 78q0 25 -29 40.5t-84 15.5q-190 0 -344 -285z" />
<glyph unicode="&#x5e4;" horiz-adv-x="1277" d="M-8 281q0 121 63.5 234.5t159.5 189t191 92.5q31 6 59 6q113 0 193.5 -67.5t80.5 -174.5q0 -31 -6 -61q-8 -39 -55 -97.5t-109.5 -101.5t-113.5 -43q-35 0 -62 21q-12 12 -12 28q0 23 15.5 50.5t45.5 72.5q31 47 45.5 74.5t14.5 48.5q0 35 -39 35q-43 0 -103.5 -43 t-104.5 -118t-44 -167q0 -68 48 -105.5t134 -37.5q109 0 260.5 83t262 239.5t110.5 369.5q0 141 -59.5 220t-155.5 97q-37 6 -74 7q-92 0 -193.5 -34t-187.5 -91q-63 -45 -120 -45q-41 0 -66 26q-20 20 -20 53q0 39 31.5 85.5t90.5 89.5q190 137 510 137q154 0 261.5 -79 t163 -207t55.5 -273q0 -238 -130.5 -448t-332 -336t-406.5 -126q-174 0 -287.5 93.5t-113.5 302.5z" />
<glyph unicode="&#x5e5;" horiz-adv-x="542" d="M-90 156q0 158 83 230.5t193 92.5q70 465 170 834q-199 45 -277.5 187t-78.5 308q0 31 4 76q25 205 127 205q45 0 63.5 -36t18.5 -107q0 -332 215 -404q106 293 278.5 432.5t391.5 139.5q157 0 232 -60.5t75 -181.5q0 -31 -2 -47q-16 -176 -189.5 -306t-455.5 -192 q-84 -18 -137 -22q-68 -201 -115 -410t-96 -469q-88 -455 -330 -455q-84 0 -127 50.5t-43 134.5zM711 1538q63 14 84 21q123 34 211 80.5t133 91.5t45 81q0 31 -31 48.5t-90 17.5q-190 0 -352 -340z" />
<glyph unicode="&#x5e6;" horiz-adv-x="1097" d="M-96 88q0 45 41 80q33 27 73 27q23 0 84 -17q49 -12 87 -18t85 -4q156 6 267.5 50t169 107.5t57.5 128.5q0 76 -77 118t-187 36q-98 -4 -140 16.5t-42 63.5q0 66 45 95.5t120 33.5q43 2 144.5 50t181.5 113.5t80 123.5q0 51 -67.5 75.5t-172.5 24.5q-74 0 -148.5 -10.5 t-129.5 -26.5q-76 -25 -127 -25q-49 0 -73.5 22t-24.5 58q0 109 164.5 163t383.5 67q106 4 198.5 -34t148 -110.5t55.5 -165.5q0 -27 -6 -55q-25 -119 -105 -209t-166 -133q82 -35 129 -122t47 -171q0 -25 -2 -34q-45 -231 -224 -345t-437 -139q-63 -6 -115 -6 q-119 0 -201 33q-51 23 -83.5 60.5t-32.5 78.5z" />
<glyph unicode="&#x5e7;" horiz-adv-x="1097" d="M-199 -422q0 47 35 121q84 166 275 684q80 211 92 242q20 53 51 81.5t70 28.5q27 0 47 -10q66 -29 65 -109q0 -41 -20 -94q-94 -244 -217 -548t-160 -361q-78 -119 -154 -119q-31 0 -53 17q-31 20 -31 67zM164 1034q0 63 98 114.5t258 74.5q55 8 113 8q236 0 354 -150 q90 -115 90 -293q0 -131 -52 -264t-146 -227q-84 -84 -150.5 -126t-112.5 -42q-29 0 -43 14q-38 37 -38 80q0 70 88 139q109 84 168 196t59 218q0 115 -66 182q-41 43 -135 43q-66 0 -205 -26q-29 -4 -58.5 -13.5t-41.5 -13.5q-51 -20 -82 -20q-45 0 -82 55q-16 27 -16 51z " />
<glyph unicode="&#x5e8;" horiz-adv-x="1120" d="M160 1012q0 53 59.5 100t153.5 76t192 29q51 0 76 -5q211 -27 309.5 -162t98.5 -327q0 -127 -39 -259t-105 -237q-98 -158 -200.5 -228.5t-172.5 -70.5q-27 0 -34 9q-35 24 -35 65q0 27 19.5 57.5t54.5 55.5q70 51 132 155.5t99 227.5t37 227q0 129 -66.5 190.5 t-169.5 61.5q-80 0 -157 -33q-72 -31 -136 -31q-43 0 -72.5 18.5t-39.5 53.5q-4 16 -4 27z" />
<glyph unicode="&#x5e9;" horiz-adv-x="1175" d="M-25 289q0 35 29 76q12 18 62 49q4 66 16 114q74 309 242 507t357 285t339 87q102 0 156.5 -60.5t54.5 -172.5q0 -39 -6 -87q-33 -213 -312.5 -418.5t-607.5 -351.5q31 -111 96 -135q47 -18 93 -18q106 0 201.5 83t146.5 193q61 133 141 133q20 0 39 -8q57 -25 57 -92 q0 -47 -28 -117q-78 -188 -220.5 -297.5t-304.5 -109.5q-35 0 -69 6q-141 20 -235.5 94t-131.5 184l-27 -6q-6 -2 -20 -2q-33 0 -50.5 17.5t-17.5 46.5zM295 535q184 92 289 161q147 97 246.5 192t147.5 171t48 119q0 18 -6 26q-8 14 -39 15q-55 0 -153.5 -47.5t-206 -128 t-187.5 -177.5q-111 -137 -139 -331z" />
<glyph unicode="&#x5ea;" horiz-adv-x="911" d="M-780 -391q0 51 30.5 76.5t92.5 33.5q33 4 96 9q100 6 169.5 17t141.5 40q127 51 222.5 208t152.5 362.5t78 412.5q18 166 55 252t125 96q10 2 33 2q215 0 336 -321q59 -154 59 -342q0 -125 -28.5 -209t-77.5 -84q-129 0 -123 184q8 199 -33 359.5t-117 179.5 q2 -170 -52 -418t-152.5 -464t-221.5 -306q-244 -176 -575 -176q-39 0 -109 4q-102 10 -102 84zM403 885h5h-5z" />
<glyph unicode="&#x5f3;" horiz-adv-x="407" d="M215 975q0 16 10 53q125 373 131 410q10 53 52.5 89t78.5 25q43 -12 64.5 -38.5t21.5 -63.5q0 -14 -8 -47q-33 -106 -94 -225t-122.5 -196t-92.5 -67q-41 15 -41 60z" />
<glyph unicode="&#x5f4;" horiz-adv-x="681" d="M244 975q0 16 10 53q121 360 129 410q10 53 52.5 89t78.5 25q88 -23 88 -102q0 -14 -8 -47q-33 -106 -94 -225t-122.5 -196t-92.5 -67q-41 15 -41 60zM518 975q0 16 11 53q125 373 131 410q10 53 52 89t79 25q43 -12 64.5 -38.5t21.5 -63.5q0 -14 -8 -47 q-33 -106 -94.5 -225t-123 -196t-92.5 -67q-41 15 -41 60z" />
<glyph unicode="&#x2013;" horiz-adv-x="1105" d="M18 588q0 33 20.5 57.5t65.5 28.5h191q319 -4 725 -4q35 0 57.5 -21.5t22.5 -58.5q0 -43 -26.5 -74t-72.5 -31q-374 0 -548 2t-349 11q-39 2 -62.5 24.5t-23.5 65.5z" />
<glyph unicode="&#x2014;" horiz-adv-x="1370" d="M10 592q0 31 26.5 55.5t59.5 30.5q29 4 314 4q399 0 759 -4h125q27 0 55.5 -25.5t28.5 -52.5q0 -31 -29.5 -62.5t-68.5 -31.5q-8 0 -50 -1t-140 -1q-618 -10 -873 -10q-111 0 -121 2q-86 12 -86 96z" />
<glyph unicode="&#x2018;" horiz-adv-x="407" d="M215 975q0 16 10 53q125 373 131 410q10 53 52.5 89t78.5 25q43 -12 64.5 -38.5t21.5 -63.5q0 -14 -8 -47q-33 -106 -94 -225t-122.5 -196t-92.5 -67q-41 15 -41 60z" />
<glyph unicode="&#x2019;" horiz-adv-x="407" d="M215 975q0 16 10 53q125 373 131 410q10 53 52.5 89t78.5 25q43 -12 64.5 -38.5t21.5 -63.5q0 -14 -8 -47q-33 -106 -94 -225t-122.5 -196t-92.5 -67q-41 15 -41 60z" />
<glyph unicode="&#x201a;" horiz-adv-x="339" d="M-191 -280q0 16 10 53q125 373 131 410q10 53 52.5 89t78.5 25q43 -12 64.5 -38.5t21.5 -63.5q0 -14 -8 -47q-33 -106 -94 -225t-122.5 -196t-92.5 -67q-41 15 -41 60z" />
<glyph unicode="&#x201c;" horiz-adv-x="681" d="M215 975q0 16 10 53q121 360 129 410q10 53 52.5 89t78.5 25q88 -23 88 -102q0 -14 -8 -47q-33 -106 -94 -225t-122.5 -196t-92.5 -67q-41 15 -41 60zM489 975q0 16 11 53q125 373 131 410q10 53 52 89t79 25q43 -12 64.5 -38.5t21.5 -63.5q0 -14 -8 -47 q-33 -106 -94.5 -225t-123 -196t-92.5 -67q-41 15 -41 60z" />
<glyph unicode="&#x201d;" horiz-adv-x="681" d="M215 975q0 16 10 53q121 360 129 410q10 53 52.5 89t78.5 25q88 -23 88 -102q0 -14 -8 -47q-33 -106 -94 -225t-122.5 -196t-92.5 -67q-41 15 -41 60zM489 975q0 16 11 53q125 373 131 410q10 53 52 89t79 25q43 -12 64.5 -38.5t21.5 -63.5q0 -14 -8 -47 q-33 -106 -94.5 -225t-123 -196t-92.5 -67q-41 15 -41 60z" />
<glyph unicode="&#x201e;" horiz-adv-x="614" d="M-180 -246q0 16 10 53q121 360 129 410q10 53 52.5 89t78.5 25q88 -23 88 -102q0 -14 -8 -47q-33 -106 -94 -225t-122.5 -196t-92.5 -67q-41 15 -41 60zM94 -246q0 16 11 53q125 373 131 410q10 53 52 89t79 25q43 -12 64.5 -38.5t21.5 -63.5q0 -14 -8 -47 q-33 -106 -94.5 -225t-123 -196t-92.5 -67q-41 15 -41 60z" />
<glyph unicode="&#x2022;" horiz-adv-x="759" d="M70 559q0 84 43 156.5t115.5 114.5t158.5 42q154 0 233.5 -88t79.5 -225q0 -84 -49 -152.5t-129 -107.5t-166 -39q-141 0 -213.5 81t-72.5 218z" />
<glyph unicode="&#x20aa;" horiz-adv-x="1517" d="M-61 70q0 41 28 92q68 123 199 379q-35 -4 -62.5 9t-40.5 44q-4 16 -4 22q0 45 50.5 91.5t111.5 72.5l80 29q51 102 61 127q31 70 68 107.5t74 37.5q14 0 28 -6q47 -20 48 -74q0 -41 -29 -104l-14 -29q139 31 237 31q45 0 86 -10q96 -27 161.5 -105.5t65.5 -181.5 q0 -51 -22 -113q-27 -72 -59 -139q-14 -31 -42 -49t-61 -18q-25 0 -49 12q-51 29 -51 84q0 35 22 80q14 27 25.5 65.5t11.5 75.5q0 86 -74 100q-18 5 -61 5q-127 0 -303 -64q-248 -481 -293 -545q-35 -51 -64.5 -74.5t-60.5 -23.5t-49 18.5t-18 53.5zM461 315q0 14 4 39 q16 82 59 193q12 31 45 53.5t64 22.5t51.5 -21.5t20.5 -58.5q0 -23 -11 -49l-41 -115q-6 -20 -6 -41q0 -49 32 -92t77 -60q61 -23 125 -22q63 0 139 22q31 8 64.5 39t54.5 78q25 55 73 211t68 229q16 59 61 94t82 25q21 -6 38.5 -33.5t17.5 -72.5q0 -39 -15 -82l-30 -99 q-72 -221 -95 -305q-29 -109 -111.5 -176t-191.5 -90q-90 -20 -168 -20q-88 0 -190 32q-94 31 -155.5 121t-61.5 178z" />
<glyph unicode="&#x20ac;" horiz-adv-x="1183" d="M-23 514q2 31 30 55.5t63 30.5q10 2 123 2q8 41 14 62l2 10q-43 0 -51 2q-88 14 -88 88q0 29 22.5 55.5t52.5 30.5q10 2 131 2q102 211 269.5 306t351.5 95q117 0 209 -30q102 -33 150.5 -68t48.5 -80q0 -14 -7 -31q-12 -37 -44.5 -55t-79.5 -18q-51 0 -107 22 q-88 35 -168 35q-102 0 -194.5 -47t-159.5 -131l299 -4q27 0 54.5 -25.5t27.5 -58.5q0 -31 -22.5 -55.5t-59.5 -26.5q-27 -2 -344 -6h-49l-11 -37q-4 -12 -8 -37l326 -6q27 0 52.5 -25.5t23.5 -60.5q-4 -31 -34 -59.5t-69 -28.5l-297 -8q27 -86 108 -127t201 -41h123 q98 0 140.5 -17.5t42.5 -79.5q0 -90 -148 -129q-100 -27 -201 -26q-209 0 -349 113.5t-165 302.5q-115 0 -131 2q-45 6 -63.5 31.5t-14.5 72.5z" />
<glyph unicode="&#x2135;" horiz-adv-x="1638" d="M162 942l641 -371v-739l-639 373zM182 977l641 371l641 -371l-641 -369zM256 254l43 -37q4 8 16 8q10 0 17 -4l92 -53q2 4 8 19.5t6 23.5q-2 6 -16 45q-45 113 -57 168q-4 20 -5 29q0 23 17 22q10 0 22 -6q37 -80 118 -240.5t108 -214.5l71 35l-2 14q-14 18 -58 79 t-71 110q59 25 80 85t21 99l30 -16l13 29l-9 16l-88 49q-18 10 -31.5 31.5t-19.5 46.5l-57 22v-63l55 -49q4 -53 4 -86q0 -78 -33 -97q-53 94 -102 205t-55 127q-20 53 -29 66q-14 8 -29 8q-18 0 -36.5 -14.5t-18.5 -16.5q12 -18 50 -75.5t61 -98.5q-16 6 -29 6 q-55 0 -49 -94q2 -37 39 -151l-2 -7l-33 19q-16 8 -23 10l-6 2zM389 969l31 -31l20 2q16 0 31 -8l90 -53q8 2 29.5 10t30.5 12q8 16 19 44t24.5 49.5t31.5 35.5q31 23 54 23q12 0 36 -11q-12 -49 -31.5 -152.5t-25.5 -137.5l133 -2l10 8q-4 12 -16 55t-10 72q164 -2 315 73 l29 -18l41 14l4 11l-88 49q-16 10 -17 24q0 12 11 27l-68 27l-57 -33l43 -37q-55 -43 -101.5 -66.5t-103.5 -25.5q6 102 74 260q-23 12 -76 12q-27 0 -44 -2t-24 -2q2 -12 5.5 -53t1.5 -68q-31 12 -66 13q-66 0 -127 -39q-29 -16 -74 -86l-12 -2l-27 14q-16 8 -24 10t-10 2z M844 -168v741l641 369l-2 -737zM944 14l43 13q12 29 31 41l88 53q2 8 8 30.5t6 30.5q-4 6 -25.5 37t-34.5 61.5t-13 55.5q0 39 38 65q37 -39 115 -109.5t105 -92.5l69 116v11q-14 2 -56 13t-69 30q57 94 78 181t21 128l28 16l10 41l-8 6l-86 -47q-8 -6 -18 -6q-20 0 -29 25 l-59 -43v-66l53 19q8 -53 8 -88q0 -76 -37 -140q-51 39 -106 103.5t-74 95.5q-18 -10 -36.5 -37t-31 -51.5t-14.5 -30.5q12 -4 49 -21.5t60 -31.5q-41 -33 -60.5 -80t-17.5 -100q2 -23 14.5 -55.5t24.5 -53.5l-2 -12l-31 -17q-16 -8 -22.5 -14t-6.5 -8z" />
<glyph unicode="&#x2212;" horiz-adv-x="956" d="M37 592q0 31 26.5 55.5t59.5 30.5q8 2 86 2q180 0 479 -8l166 -2q27 0 53.5 -26t26.5 -60q0 -31 -30 -65t-68 -34l-455 -2q-233 0 -258 4q-45 6 -65.5 32t-20.5 73z" />
<glyph unicode="&#x25fc;" horiz-adv-x="1024" d="M0 0z" />
<glyph unicode="&#xfb2a;" horiz-adv-x="1175" d="M-25 289q0 35 29 76q12 18 62 49q4 66 16 114q74 309 242 507t357 285t339 87q102 0 156.5 -60.5t54.5 -172.5q0 -39 -6 -87q-33 -213 -312.5 -418.5t-607.5 -351.5q31 -111 96 -135q47 -18 93 -18q106 0 201.5 83t146.5 193q61 133 141 133q20 0 39 -8q57 -25 57 -92 q0 -47 -28 -117q-78 -188 -220.5 -297.5t-304.5 -109.5q-35 0 -69 6q-141 20 -235.5 94t-131.5 184l-27 -6q-6 -2 -20 -2q-33 0 -50.5 17.5t-17.5 46.5zM295 535q184 92 289 161q147 97 246.5 192t147.5 171t48 119q0 18 -6 26q-8 14 -39 15q-55 0 -153.5 -47.5t-206 -128 t-187.5 -177.5q-111 -137 -139 -331zM1263 1407q0 37 26.5 62.5t63.5 25.5q43 0 65.5 -24.5t22.5 -63.5q0 -35 -34.5 -60.5t-73.5 -25.5t-54.5 22.5t-15.5 63.5z" />
<glyph unicode="&#xfb2b;" horiz-adv-x="1175" d="M-25 289q0 35 29 76q12 18 62 49q4 66 16 114q74 309 242 507t357 285t339 87q102 0 156.5 -60.5t54.5 -172.5q0 -39 -6 -87q-33 -213 -312.5 -418.5t-607.5 -351.5q31 -111 96 -135q47 -18 93 -18q106 0 201.5 83t146.5 193q61 133 141 133q20 0 39 -8q57 -25 57 -92 q0 -47 -28 -117q-78 -188 -220.5 -297.5t-304.5 -109.5q-35 0 -69 6q-141 20 -235.5 94t-131.5 184l-27 -6q-6 -2 -20 -2q-33 0 -50.5 17.5t-17.5 46.5zM295 535q184 92 289 161q147 97 246.5 192t147.5 171t48 119q0 18 -6 26q-8 14 -39 15q-55 0 -153.5 -47.5t-206 -128 t-187.5 -177.5q-111 -137 -139 -331zM334 1339q0 37 26.5 62.5t63.5 25.5q43 0 65.5 -24.5t22.5 -63.5q0 -35 -34.5 -60.5t-73.5 -25.5t-54.5 22.5t-15.5 63.5z" />
<glyph unicode="&#xfb2c;" horiz-adv-x="1175" d="M-25 289q0 35 29 76q12 18 62 49q4 66 16 114q74 309 242 507t357 285t339 87q102 0 156.5 -60.5t54.5 -172.5q0 -39 -6 -87q-33 -213 -312.5 -418.5t-607.5 -351.5q31 -111 96 -135q47 -18 93 -18q106 0 201.5 83t146.5 193q61 133 141 133q20 0 39 -8q57 -25 57 -92 q0 -47 -28 -117q-78 -188 -220.5 -297.5t-304.5 -109.5q-35 0 -69 6q-141 20 -235.5 94t-131.5 184l-27 -6q-6 -2 -20 -2q-33 0 -50.5 17.5t-17.5 46.5zM295 535q184 92 289 161q147 97 246.5 192t147.5 171t48 119q0 18 -6 26q-8 14 -39 15q-55 0 -153.5 -47.5t-206 -128 t-187.5 -177.5q-111 -137 -139 -331zM617 946q0 31 21.5 53.5t53.5 22.5q37 0 56.5 -21.5t19.5 -54.5q0 -31 -29.5 -54.5t-62.5 -23.5q-59 0 -59 78zM1263 1407q0 37 26.5 62.5t63.5 25.5q43 0 65.5 -24.5t22.5 -63.5q0 -35 -34.5 -60.5t-73.5 -25.5t-54.5 22.5t-15.5 63.5z " />
<glyph unicode="&#xfb2d;" horiz-adv-x="1175" d="M-25 289q0 35 29 76q12 18 62 49q4 66 16 114q74 309 242 507t357 285t339 87q102 0 156.5 -60.5t54.5 -172.5q0 -39 -6 -87q-33 -213 -312.5 -418.5t-607.5 -351.5q31 -111 96 -135q47 -18 93 -18q106 0 201.5 83t146.5 193q61 133 141 133q20 0 39 -8q57 -25 57 -92 q0 -47 -28 -117q-78 -188 -220.5 -297.5t-304.5 -109.5q-35 0 -69 6q-141 20 -235.5 94t-131.5 184l-27 -6q-6 -2 -20 -2q-33 0 -50.5 17.5t-17.5 46.5zM295 535q184 92 289 161q147 97 246.5 192t147.5 171t48 119q0 18 -6 26q-8 14 -39 15q-55 0 -153.5 -47.5t-206 -128 t-187.5 -177.5q-111 -137 -139 -331zM334 1339q0 37 26.5 62.5t63.5 25.5q43 0 65.5 -24.5t22.5 -63.5q0 -35 -34.5 -60.5t-73.5 -25.5t-54.5 22.5t-15.5 63.5zM617 946q0 31 21.5 53.5t53.5 22.5q37 0 56.5 -21.5t19.5 -54.5q0 -31 -29.5 -54.5t-62.5 -23.5q-59 0 -59 78z " />
<glyph unicode="&#xfb2e;" horiz-adv-x="1099" d="M-102 -35q0 47 16 129q16 72 106.5 321t185.5 483.5t126 279.5q70 96 151 96q18 0 41 -6q23 -8 37 -35t14 -66q0 -47 -22 -92q-61 -129 -238.5 -557t-197.5 -526q-33 -143 -131 -144q-16 0 -37 5q-51 12 -51 112zM147 -321q0 23 17.5 37t48.5 14l135 6l164 8 q31 0 50 -19.5t19 -49.5q0 -33 -21.5 -51.5t-47.5 -18.5q-109 0 -299 18q-29 2 -47.5 17.5t-18.5 38.5zM369 336q12 162 128.5 287t249 196.5t197.5 89.5q41 12 84 13q70 0 98 -45q18 -27 19 -58q0 -39 -30 -74.5t-87 -56.5q-152 -53 -287 -143t-135 -217q0 -82 49.5 -123 t135.5 -78q39 -14 57 -25.5t18 -27.5q0 -51 -50 -86t-122 -27q-59 6 -139 50t-137.5 127t-48.5 198z" />
<glyph unicode="&#xfb2f;" horiz-adv-x="1099" d="M-102 -35q0 47 16 129q16 72 106.5 321t185.5 483.5t126 279.5q70 96 151 96q18 0 41 -6q23 -8 37 -35t14 -66q0 -47 -22 -92q-61 -129 -238.5 -557t-197.5 -526q-33 -143 -131 -144q-16 0 -37 5q-51 12 -51 112zM145 -266q0 25 18.5 40.5t49.5 15.5l143 6l172 8 q31 0 51.5 -21.5t20.5 -52.5q0 -33 -22.5 -52.5t-49.5 -19.5l-115 5q2 -41 6.5 -74t4.5 -47q0 -59 -12.5 -80t-63.5 -21q-37 0 -58.5 20.5t-21.5 51.5q0 23 8 41l49 115q-80 4 -112 8q-31 4 -49.5 18.5t-18.5 38.5zM369 336q12 162 128.5 287t249 196.5t197.5 89.5 q41 12 84 13q70 0 98 -45q18 -27 19 -58q0 -39 -30 -74.5t-87 -56.5q-152 -53 -287 -143t-135 -217q0 -82 49.5 -123t135.5 -78q39 -14 57 -25.5t18 -27.5q0 -51 -50 -86t-122 -27q-59 6 -139 50t-137.5 127t-48.5 198z" />
<glyph unicode="&#xfb30;" horiz-adv-x="1099" d="M-102 -35q0 47 16 129q16 72 106.5 321t185.5 483.5t126 279.5q70 96 151 96q18 0 41 -6q23 -8 37 -35t14 -66q0 -47 -22 -92q-61 -129 -238.5 -557t-197.5 -526q-33 -143 -131 -144q-16 0 -37 5q-51 12 -51 112zM369 336q12 162 128.5 287t249 196.5t197.5 89.5 q41 12 84 13q70 0 98 -45q18 -27 19 -58q0 -39 -30 -74.5t-87 -56.5q-152 -53 -287 -143t-135 -217q0 -82 49.5 -123t135.5 -78q39 -14 57 -25.5t18 -27.5q0 -51 -50 -86t-122 -27q-59 6 -139 50t-137.5 127t-48.5 198zM754 383q0 31 21.5 53.5t53.5 22.5q37 0 56.5 -21.5 t19.5 -54.5q0 -31 -29.5 -54.5t-62.5 -23.5q-59 0 -59 78z" />
<glyph unicode="&#xfb31;" horiz-adv-x="1314" d="M-53 -119q0 53 37 111q14 20 34 57q100 164 181.5 270.5t148.5 112.5q39 4 66.5 -15.5t62.5 -60.5q41 -47 77 -72.5t89 -25.5q70 0 162 47t155.5 118t57.5 138q-8 88 -90 140.5t-180 52.5q-72 0 -139.5 -14.5t-157.5 -41.5q-119 -35 -179 -41q-53 -4 -73 -4 q-78 0 -109 43q-18 29 -18 54q0 57 88 110q39 23 132 52.5t209.5 51t225.5 21.5q35 0 53 -2q117 -6 231.5 -63.5t186.5 -155.5t66 -219q-6 -117 -107.5 -230.5t-247 -186.5t-270.5 -73q-88 0 -157.5 33t-119.5 80q-170 -246 -204 -313q-35 -70 -107 -70q-23 0 -59 12 q-19 8 -32 30.5t-13 53.5zM605 502q0 31 21.5 53.5t53.5 22.5q37 0 56.5 -21.5t19.5 -54.5q0 -31 -29.5 -54.5t-62.5 -23.5q-59 0 -59 78z" />
<glyph unicode="&#xfb32;" horiz-adv-x="1050" d="M-98 131q0 219 160.5 379t394.5 258q-113 109 -148 225q-16 49 -16 94q0 70 55 105q25 16 55 16q47 0 93.5 -43t74.5 -118q51 -125 154 -191q76 18 119 18q106 0 169.5 -33.5t63.5 -84.5q0 -37 -27.5 -75t-84 -64.5t-138.5 -26.5q-61 0 -137 28q-156 -51 -282.5 -133 t-200.5 -174t-74 -174q0 -98 52.5 -170.5t148.5 -142.5q27 -18 42 -46t15 -57q0 -43 -37 -73q-16 -14 -49 -15q-35 0 -78 17.5t-80 46.5q-115 88 -180 199.5t-65 234.5zM564 307q0 31 21.5 53.5t53.5 22.5q37 0 56.5 -21.5t19.5 -54.5q0 -31 -29.5 -54.5t-62.5 -23.5 q-59 0 -59 78z" />
<glyph unicode="&#xfb33;" horiz-adv-x="1062" d="M90 590q-10 80 86 108.5t223 28.5q31 0 51.5 -1t26.5 -1q115 35 248 112.5t182 133.5q37 41 37 82q0 33 -27.5 57.5t-80.5 30.5q-16 2 -54 2q-80 0 -166 -18.5t-145 -43.5q-39 -16 -89 -26.5t-95 -10.5q-84 0 -111 33q-18 29 -18 56q0 31 17.5 60.5t37.5 47.5 q61 51 220 89t300 38q27 0 72 -4q147 -14 247.5 -92t100.5 -213q0 -121 -73.5 -211t-171 -143.5t-183.5 -79.5q90 -39 90 -201q0 -16 -4 -70q-12 -123 -41 -186.5t-60.5 -104t-43.5 -57.5q-33 -45 -93 -45q-39 0 -66.5 20.5t-27.5 55.5q0 20 13 45q53 98 78.5 172t25.5 135 q0 51 -35 80t-119 37l-28 2q-29 0 -99 -8q-55 -10 -98 -11q-53 0 -86 23t-41 78zM410 913q0 31 21.5 53.5t53.5 22.5q37 0 56.5 -21.5t19.5 -54.5q0 -31 -29.5 -54.5t-62.5 -23.5q-59 0 -59 78z" />
<glyph unicode="&#xfb34;" horiz-adv-x="1333" d="M-6 76q0 61 65 119q74 63 120 149t75 213q8 39 44 60.5t77 21.5q31 0 49 -10q61 -31 61 -109q0 -35 -12 -82q-31 -109 -102.5 -227.5t-151.5 -179.5q-80 -63 -129 -64q-18 0 -35 8q-26 15 -43.5 41.5t-17.5 59.5zM82 922q0 31 24.5 64.5t71.5 62.5q117 72 253 109.5 t274 37.5q207 0 366.5 -82t220.5 -235q31 -80 31 -162q0 -145 -83 -285.5t-199.5 -250t-219.5 -171.5q-59 -39 -116 -39q-55 0 -78 49q-6 16 -6 33q0 61 96 150l45 41q147 131 243.5 250.5t96.5 244.5q0 106 -98.5 168t-260.5 62q-215 0 -458 -109q-57 -27 -105 -26 q-57 0 -86 45q-12 23 -12 43zM740 692q0 31 21.5 53.5t53.5 22.5q37 0 56.5 -21.5t19.5 -54.5q0 -31 -29.5 -54.5t-62.5 -23.5q-59 0 -59 78z" />
<glyph unicode="&#xfb35;" horiz-adv-x="477" d="M-72 33q0 47 25 131q4 16 45 119q80 209 143.5 387t118.5 368q35 123 74 181.5t100 58.5q117 0 117 -129q0 -59 -25 -139q-39 -129 -123 -336t-167.5 -390.5t-114.5 -232.5q-57 -90 -117 -90q-20 0 -47 10q-29 13 -29 62zM-34 754q0 31 21.5 53.5t53.5 22.5 q37 0 56.5 -21.5t19.5 -54.5q0 -31 -29.5 -54.5t-62.5 -23.5q-59 0 -59 78z" />
<glyph unicode="&#xfb36;" horiz-adv-x="1107" d="M-186 -76q0 49 36.5 61.5t74.5 12.5h50q127 12 289 87t297 165q111 74 188.5 175t77.5 181q0 59 -47 92q-33 23 -90 23q-70 0 -147.5 -25.5t-200.5 -77.5q-90 -37 -106 -40q-8 -2 -25 -3q-55 0 -90 39t-35 91q0 47 33 79q31 31 243.5 284t264.5 318q31 39 67.5 59.5 t73.5 20.5q41 0 78 -24q47 -31 47 -92q0 -37 -17.5 -75t-50.5 -69l-301 -293q87 23 185 23q150 0 246 -75t96 -253q0 -184 -136.5 -343t-320.5 -267.5t-350 -169.5q-98 -35 -193 -35q-102 0 -169.5 38t-67.5 93zM361 405q0 31 21.5 53.5t53.5 22.5q37 0 56.5 -21.5 t19.5 -54.5q0 -31 -29.5 -54.5t-62.5 -23.5q-59 0 -59 78z" />
<glyph unicode="&#xfb38;" horiz-adv-x="1155" d="M63 395q0 326 175.5 618t467 469t625.5 177q139 0 212 -23.5t73 -95.5q0 -59 -48 -83.5t-124 -24.5q-299 0 -558 -129t-415 -368t-156 -554q0 -74 56.5 -129t132.5 -55q119 0 196.5 108.5t110.5 265.5q14 68 54 101t81 33q57 0 89 -45.5t32 -114.5q0 -14 -4 -51 q-14 -92 -86 -219.5t-195 -222.5t-282 -95q-115 0 -215.5 54.5t-161 154.5t-60.5 229zM504 563q0 31 21.5 53.5t53.5 22.5q37 0 56.5 -21.5t19.5 -54.5q0 -31 -29.5 -54.5t-62.5 -23.5q-59 0 -59 78z" />
<glyph unicode="&#xfb39;" horiz-adv-x="423" d="M21 285q0 31 21.5 53.5t53.5 22.5q37 0 56.5 -21.5t19.5 -54.5q0 -31 -29.5 -54.5t-62.5 -23.5q-59 0 -59 78zM78 555q0 47 19.5 109.5t58.5 164.5q49 131 61 177q18 63 56 101t81 38q20 0 31 -4q80 -29 80 -111q0 -45 -25 -115l-16 -49q-57 -166 -119.5 -284.5 t-144.5 -118.5q-14 0 -33 6q-49 20 -49 86z" />
<glyph unicode="&#xfb3a;" horiz-adv-x="880" d="M-150 -686q0 47 46 113q86 121 182 275.5t227 371.5q35 59 43 69q74 121 120 205t84 188.5t38 200.5q0 113 -68.5 185.5t-173.5 72.5q-29 0 -55 -6q-33 -6 -62 -6q-55 0 -86.5 26.5t-31.5 82.5q0 68 61.5 103.5t163.5 35.5q43 0 88 -6q209 -27 304 -157t95 -320 q0 -129 -40 -264.5t-107 -241.5l-53 -86q-172 -276 -314.5 -492.5t-261.5 -351.5q-68 -78 -133 -78q-23 0 -31 8q-35 29 -35 72zM189 594q0 31 21.5 53.5t53.5 22.5q37 0 56.5 -21.5t19.5 -54.5q0 -31 -29.5 -54.5t-62.5 -23.5q-59 0 -59 78z" />
<glyph unicode="&#xfb3b;" horiz-adv-x="1220" d="M-37 195q0 72 70 71q31 0 69.5 -12t72.5 -24.5t44 -16.5q84 -35 184 -35q111 0 215.5 46t180 130t106.5 195q16 61 17 108q0 137 -104.5 211t-262.5 74h-145q-123 0 -169 17.5t-46 78.5q0 90 147 129q102 25 199 25q168 0 310 -68.5t225 -188.5t83 -267q0 -72 -20 -146 q-86 -305 -289 -439t-438 -134q-123 0 -234 35q-100 32 -157.5 92.5t-57.5 118.5zM377 563q0 31 21.5 53.5t53.5 22.5q37 0 56.5 -21.5t19.5 -54.5q0 -31 -29.5 -54.5t-62.5 -23.5q-59 0 -59 78z" />
<glyph unicode="&#xfb3c;" horiz-adv-x="542" d="M-90 156q0 31 2 45q14 135 96 198.5t182 79.5q72 416 218 862q102 317 275 473t394 156q76 0 160 -27.5t139 -72.5q43 -37 64.5 -75t21.5 -71q0 -29 -16 -45q-25 -23 -57 -22q-29 0 -60 13t-74 40q-53 31 -90 46.5t-75 15.5q-195 0 -330 -225.5t-208 -496t-142 -624.5 q-88 -455 -330 -455q-84 0 -127 50.5t-43 134.5zM-4 678q0 31 21.5 53.5t53.5 22.5q37 0 56.5 -21.5t19.5 -54.5q0 -31 -29.5 -54.5t-62.5 -23.5q-59 0 -59 78z" />
<glyph unicode="&#xfb3e;" horiz-adv-x="921" d="M-102 74q0 33 19.5 81t57.5 124q57 111 109.5 240.5t62.5 154.5l29 69q45 111 75 155t68 44q6 0 23 -4q41 -10 58.5 -35.5t21.5 -62.5t6 -113q0 -139 12 -231q10 -80 13 -138q55 156 185 452t169 364q59 113 133 112q23 0 47 -12q64 -31 64 -107q0 -53 -37 -143 q-31 -74 -79 -177.5t-69 -146.5q-168 -352 -245 -569q-25 -70 -64 -107.5t-82 -37.5q-16 0 -35 6q-53 20 -95 91t-66 193q-10 57 -15 107q-78 -201 -162 -309q-31 -39 -58.5 -60.5t-57.5 -21.5q-23 0 -41 10q-47 25 -47 72zM488 917q0 31 21.5 53.5t53.5 22.5 q37 0 56.5 -21.5t19.5 -54.5q0 -31 -29.5 -54.5t-62.5 -23.5q-59 0 -59 78z" />
<glyph unicode="&#xfb40;" horiz-adv-x="483" d="M-981 -475q8 61 127 61q31 0 76 -4q23 -2 73 -2q174 0 337 95.5t317.5 394.5t249.5 862q14 94 57 156.5t109 62.5q25 0 49 -8q63 -23 63 -103q0 -57 -35 -180q-4 -18 -11 -43.5t-13 -58.5q-57 -276 -170 -585.5t-338 -568.5t-557 -259q-166 0 -254 50t-80 130zM-100 563 q0 31 21.5 53.5t53.5 22.5q37 0 56.5 -21.5t19.5 -54.5q0 -31 -29.5 -54.5t-62.5 -23.5q-59 0 -59 78z" />
<glyph unicode="&#xfb41;" horiz-adv-x="1159" d="M45 397q0 23 4 76q18 193 108.5 299.5t200.5 149.5q-14 16 -16 34q-4 25 -4 35q0 39 22.5 65.5t65.5 47.5q51 27 124 39t148 12q33 0 82 -4q82 -8 157 -53t122 -127t47 -197q0 -20 -4 -61q-25 -231 -124 -405.5t-233.5 -266.5t-265.5 -92q-25 0 -37 2 q-158 16 -277.5 123.5t-119.5 322.5zM279 457q0 -119 44 -197t113 -86q10 -2 31 -2q129 0 222 113.5t142.5 259t49.5 225.5q0 84 -47.5 131t-102.5 47q-35 0 -93 -15t-112 -32q2 -4 2 -16q0 -14 -2 -23q-2 -18 -18 -35.5t-57 -52.5q-74 -61 -118 -117.5t-52 -138.5 q-2 -20 -2 -61zM506 563q0 31 21.5 53.5t53.5 22.5q37 0 56.5 -21.5t19.5 -54.5q0 -31 -29.5 -54.5t-62.5 -23.5q-59 0 -59 78z" />
<glyph unicode="&#xfb43;" horiz-adv-x="632" d="M-150 901q0 33 13 66q59 160 232 282.5t415 202.5q106 305 280.5 452.5t395.5 147.5q160 0 235.5 -68.5t75.5 -193.5q0 -133 -72.5 -220t-207 -142.5t-347.5 -100.5q-76 -16 -165 -41q-115 -324 -203 -860q-43 -264 -134.5 -359.5t-195.5 -95.5q-84 0 -127 50.5 t-43 134.5q0 156 83 229.5t194 93.5q63 385 149 701q-199 -96 -311 -252q-16 -25 -27 -37q-37 -57 -68.5 -89t-70.5 -32q-43 0 -72 39t-29 92zM49 647q0 31 21.5 53.5t53.5 22.5q37 0 56.5 -21.5t19.5 -54.5q0 -31 -29.5 -54.5t-62.5 -23.5q-59 0 -59 78zM811 1532l35 6 q129 25 225 63.5t146.5 81.5t50.5 78q0 25 -29 40.5t-84 15.5q-190 0 -344 -285z" />
<glyph unicode="&#xfb44;" horiz-adv-x="1277" d="M-8 281q0 121 63.5 234.5t159.5 189t191 92.5q31 6 59 6q113 0 193.5 -67.5t80.5 -174.5q0 -31 -6 -61q-8 -39 -55 -97.5t-109.5 -101.5t-113.5 -43q-35 0 -62 21q-12 12 -12 28q0 23 15.5 50.5t45.5 72.5q31 47 45.5 74.5t14.5 48.5q0 35 -39 35q-43 0 -103.5 -43 t-104.5 -118t-44 -167q0 -68 48 -105.5t134 -37.5q109 0 260.5 83t262 239.5t110.5 369.5q0 141 -59.5 220t-155.5 97q-37 6 -74 7q-92 0 -193.5 -34t-187.5 -91q-63 -45 -120 -45q-41 0 -66 26q-20 20 -20 53q0 39 31.5 85.5t90.5 89.5q190 137 510 137q154 0 261.5 -79 t163 -207t55.5 -273q0 -238 -130.5 -448t-332 -336t-406.5 -126q-174 0 -287.5 93.5t-113.5 302.5zM705 911q0 31 21.5 53.5t53.5 22.5q37 0 56.5 -21.5t19.5 -54.5q0 -31 -29.5 -54.5t-62.5 -23.5q-59 0 -59 78z" />
<glyph unicode="&#xfb46;" horiz-adv-x="1097" d="M-96 88q0 45 41 80q33 27 73 27q23 0 84 -17q49 -12 87 -18t85 -4q156 6 267.5 50t169 107.5t57.5 128.5q0 76 -77 118t-187 36q-98 -4 -140 16.5t-42 63.5q0 66 45 95.5t120 33.5q43 2 144.5 50t181.5 113.5t80 123.5q0 51 -67.5 75.5t-172.5 24.5q-74 0 -148.5 -10.5 t-129.5 -26.5q-76 -25 -127 -25q-49 0 -73.5 22t-24.5 58q0 109 164.5 163t383.5 67q106 4 198.5 -34t148 -110.5t55.5 -165.5q0 -27 -6 -55q-25 -119 -105 -209t-166 -133q82 -35 129 -122t47 -171q0 -25 -2 -34q-45 -231 -224 -345t-437 -139q-63 -6 -115 -6 q-119 0 -201 33q-51 23 -83.5 60.5t-32.5 78.5zM291 371q0 31 21.5 53.5t53.5 22.5q37 0 56.5 -21.5t19.5 -54.5q0 -31 -29.5 -54.5t-62.5 -23.5q-59 0 -59 78z" />
<glyph unicode="&#xfb47;" horiz-adv-x="1097" d="M-199 -422q0 47 35 121q84 166 275 684q80 211 92 242q20 53 51 81.5t70 28.5q27 0 47 -10q66 -29 65 -109q0 -41 -20 -94q-94 -244 -217 -548t-160 -361q-78 -119 -154 -119q-31 0 -53 17q-31 20 -31 67zM164 1034q0 63 98 114.5t258 74.5q55 8 113 8q236 0 354 -150 q90 -115 90 -293q0 -131 -52 -264t-146 -227q-84 -84 -150.5 -126t-112.5 -42q-29 0 -43 14q-38 37 -38 80q0 70 88 139q109 84 168 196t59 218q0 115 -66 182q-41 43 -135 43q-66 0 -205 -26q-29 -4 -58.5 -13.5t-41.5 -13.5q-51 -20 -82 -20q-45 0 -82 55q-16 27 -16 51z M572 741q0 31 21.5 53.5t53.5 22.5q37 0 56.5 -21.5t19.5 -54.5q0 -31 -29.5 -54.5t-62.5 -23.5q-59 0 -59 78z" />
<glyph unicode="&#xfb48;" horiz-adv-x="1120" d="M160 1012q0 53 59.5 100t153.5 76t192 29q51 0 76 -5q211 -27 309.5 -162t98.5 -327q0 -127 -39 -259t-105 -237q-98 -158 -200.5 -228.5t-172.5 -70.5q-27 0 -34 9q-35 24 -35 65q0 27 19.5 57.5t54.5 55.5q70 51 132 155.5t99 227.5t37 227q0 129 -66.5 190.5 t-169.5 61.5q-80 0 -157 -33q-72 -31 -136 -31q-43 0 -72.5 18.5t-39.5 53.5q-4 16 -4 27zM426 604q0 31 21.5 53.5t53.5 22.5q37 0 56.5 -21.5t19.5 -54.5q0 -31 -29.5 -54.5t-62.5 -23.5q-59 0 -59 78z" />
<glyph unicode="&#xfb49;" horiz-adv-x="1175" d="M-25 289q0 35 29 76q12 18 62 49q4 66 16 114q74 309 242 507t357 285t339 87q102 0 156.5 -60.5t54.5 -172.5q0 -39 -6 -87q-33 -213 -312.5 -418.5t-607.5 -351.5q31 -111 96 -135q47 -18 93 -18q106 0 201.5 83t146.5 193q61 133 141 133q20 0 39 -8q57 -25 57 -92 q0 -47 -28 -117q-78 -188 -220.5 -297.5t-304.5 -109.5q-35 0 -69 6q-141 20 -235.5 94t-131.5 184l-27 -6q-6 -2 -20 -2q-33 0 -50.5 17.5t-17.5 46.5zM295 535q184 92 289 161q147 97 246.5 192t147.5 171t48 119q0 18 -6 26q-8 14 -39 15q-55 0 -153.5 -47.5t-206 -128 t-187.5 -177.5q-111 -137 -139 -331zM617 946q0 31 21.5 53.5t53.5 22.5q37 0 56.5 -21.5t19.5 -54.5q0 -31 -29.5 -54.5t-62.5 -23.5q-59 0 -59 78z" />
<glyph unicode="&#xfb4a;" horiz-adv-x="911" d="M-780 -391q0 51 30.5 76.5t92.5 33.5q33 4 96 9q100 6 169.5 17t141.5 40q127 51 222.5 208t152.5 362.5t78 412.5q18 166 55 252t125 96q10 2 33 2q215 0 336 -321q59 -154 59 -342q0 -125 -28.5 -209t-77.5 -84q-129 0 -123 184q8 199 -33 359.5t-117 179.5 q2 -170 -52 -418t-152.5 -464t-221.5 -306q-244 -176 -575 -176q-39 0 -109 4q-102 10 -102 84zM383 389q0 31 21.5 53.5t53.5 22.5q37 0 56.5 -21.5t19.5 -54.5q0 -31 -29.5 -54.5t-62.5 -23.5q-59 0 -59 78zM403 885h5h-5z" />
<glyph unicode="&#xfb4b;" horiz-adv-x="477" d="M-72 33q0 47 25 131q4 16 45 119q80 209 143.5 387t118.5 368q35 123 74 181.5t100 58.5q117 0 117 -129q0 -59 -25 -139q-39 -129 -123 -336t-167.5 -390.5t-114.5 -232.5q-57 -90 -117 -90q-20 0 -47 10q-29 13 -29 62zM471 1512q0 37 26.5 62.5t63.5 25.5 q43 0 65.5 -24.5t22.5 -63.5q0 -35 -36 -61.5t-72 -26.5q-70 0 -70 88z" />
<glyph horiz-adv-x="395" d="M-68 55q0 41 19 97q49 154 126 406.5t130 432.5q27 92 66.5 144.5t86.5 52.5q14 0 29 -6q72 -25 72 -111q0 -43 -19 -102q-43 -145 -146 -468t-138 -409q-27 -66 -63 -100.5t-79 -34.5q-36 0 -60 25.5t-24 72.5z" />
<glyph horiz-adv-x="1818" d="M-63 31q0 49 34 112l240 461q-6 -2 -21 -2q-35 0 -62.5 17.5t-39.5 50.5q-4 8 -4 26q0 53 61.5 108.5t135.5 90.5q33 14 96 35l74 153q37 84 83 131.5t91 47.5q18 0 34 -9q57 -27 58 -90q0 -51 -35 -127l-14 -32q180 37 286 36q59 0 103 -12q117 -33 194.5 -128 t77.5 -220q0 -74 -24 -137q-35 -92 -72 -170q-16 -37 -51 -60.5t-74 -23.5q-27 0 -59 16q-61 35 -62 103q0 45 27 96q18 35 31.5 82t13.5 90q0 106 -90 123q-33 6 -72 6q-147 0 -367 -76q-106 -211 -213.5 -410.5t-146.5 -255.5q-47 -63 -81 -91.5t-71 -28.5t-59 23.5 t-22 64.5zM571 332q0 16 4 45q20 96 74 233q14 39 53 65.5t78 26.5q37 0 61.5 -27.5t24.5 -70.5q0 -31 -10 -57l-51 -139q-8 -23 -8 -50q0 -61 38.5 -113t94.5 -73q78 -27 147 -27q68 0 174 29q39 10 79 47t65 94q29 68 92 272t80 263q18 66 64 106.5t91 40.5q12 0 19 -2 q24 -8 45.5 -40.5t21.5 -88.5q0 -49 -16 -100l-37 -117q-14 -47 -55 -175t-62 -200q-37 -129 -136 -210.5t-230 -112.5q-104 -25 -201 -25q-106 0 -235 41q-76 25 -136.5 85.5t-94.5 135t-34 144.5z" />
</font>
</defs>
</svg>
